<svg width="41" height="40" viewBox="0 0 41 40" fill="none" xmlns="http://www.w3.org/2000/svg"><path fill-rule="evenodd" clip-rule="evenodd" d="M8.28 3.544a1.25 1.25 0 0 1 1.084-.628h22.272c.448 0 .862.24 1.084.628l6.364 11.083a1.25 1.25 0 0 1-.132 1.432l-17.5 20.583a1.25 1.25 0 0 1-1.904 0L2.048 16.06a1.25 1.25 0 0 1-.132-1.432L8.28 3.544Zm1.807 1.872-5.565 9.693L20.5 33.903l15.978-18.794-5.565-9.693H10.087Z" fill="#25A4C4"/><path fill-rule="evenodd" clip-rule="evenodd" d="M8.949 2.987a1.25 1.25 0 0 1 1.594.765L20.5 32.065l9.957-28.313a1.25 1.25 0 0 1 2.359.83L21.679 36.247a1.25 1.25 0 0 1-2.358 0L8.184 4.58a1.25 1.25 0 0 1 .765-1.594Z" fill="#25A4C4"/><path fill-rule="evenodd" clip-rule="evenodd" d="M1.75 15.25c0-.69.56-1.25 1.25-1.25h35a1.25 1.25 0 1 1 0 2.5H3c-.69 0-1.25-.56-1.25-1.25Z" fill="#25A4C4"/><path fill-rule="evenodd" clip-rule="evenodd" d="M20.5 2.916c.423 0 .819.215 1.05.572l7.158 11.083a1.25 1.25 0 1 1-2.1 1.357L20.5 6.47l-6.109 9.458a1.25 1.25 0 1 1-2.1-1.357l7.16-11.083a1.25 1.25 0 0 1 1.05-.572Z" fill="#25A4C4"/></svg>