<svg width="40" height="40" viewBox="0 0 40 40" fill="none" xmlns="http://www.w3.org/2000/svg"><path d="M19.218 4.024a1.25 1.25 0 0 1 1.562 0l16.666 13.333a1.25 1.25 0 1 1-1.561 1.952l-2.136-1.708V35c0 .69-.56 1.25-1.25 1.25h-25c-.69 0-1.25-.56-1.25-1.25V17.6l-2.136 1.71a1.25 1.25 0 1 1-1.562-1.953l4.167-3.333 12.5-10ZM8.748 15.6V33.75h22.5V15.6l-11.25-9-11.25 9Z" fill="#fff"/><path d="M20 23.75c.69 0 1.25.56 1.25 1.25v5a1.25 1.25 0 1 1-2.5 0v-5c0-.69.56-1.25 1.25-1.25ZM25.832 20.416c.69 0 1.25.56 1.25 1.25v8.333a1.25 1.25 0 1 1-2.5 0v-8.333c0-.69.56-1.25 1.25-1.25ZM14.168 25.416c.69 0 1.25.56 1.25 1.25v3.333a1.25 1.25 0 0 1-2.5 0v-3.333c0-.69.56-1.25 1.25-1.25ZM26.795 15.034a1.25 1.25 0 0 1-.16 1.76l-5 4.167a1.25 1.25 0 0 1-1.684-.076l-1.71-1.71-3.292 2.635a1.25 1.25 0 1 1-1.562-1.952l4.167-3.333a1.25 1.25 0 0 1 1.665.092l1.692 1.693 4.123-3.436a1.25 1.25 0 0 1 1.761.16Z" fill="#fff"/></svg>