<svg width="40" height="40" viewBox="0 0 40 40" fill="none" xmlns="http://www.w3.org/2000/svg"><path fill-rule="evenodd" clip-rule="evenodd" d="M3.75 10.5c0-.69.56-1.25 1.25-1.25h30c.69 0 1.25.56 1.25 1.25v23.667a2.917 2.917 0 0 1-2.917 2.916H6.667a2.917 2.917 0 0 1-2.917-2.916V10.5Zm2.5 1.25v22.417c0 .23.187.416.417.416h26.666c.23 0 .417-.186.417-.416V11.75H6.25Z" fill="#25A4C4"/><path fill-rule="evenodd" clip-rule="evenodd" d="M8.72 3.419a1.25 1.25 0 0 1 1.002-.503h20.556c.395 0 .766.186 1.002.503l4.722 6.333a1.25 1.25 0 0 1-2.004 1.494l-4.347-5.83H10.35l-4.348 5.83a1.25 1.25 0 1 1-2.004-1.494L8.72 3.42ZM13.703 14.75c.69 0 1.25.56 1.25 1.25 0 2.814 2.266 5.083 5.047 5.083 2.78 0 5.046-2.269 5.046-5.083a1.25 1.25 0 0 1 2.5 0c0 4.181-3.372 7.583-7.546 7.583-4.175 0-7.547-3.402-7.547-7.583 0-.69.56-1.25 1.25-1.25Z" fill="#25A4C4"/></svg>