<svg width="40" height="40" viewBox="0 0 40 40" fill="none" xmlns="http://www.w3.org/2000/svg"><path fill-rule="evenodd" clip-rule="evenodd" d="M6.332 6.504c-1.375.688-1.75 1.407-1.75 1.829 0 .422.375 1.14 1.75 1.828 1.3.65 3.184 1.088 5.333 1.088 2.15 0 4.034-.438 5.334-1.088 1.375-.688 1.75-1.406 1.75-1.828 0-.422-.375-1.141-1.75-1.829-1.3-.65-3.184-1.088-5.334-1.088-2.149 0-4.033.438-5.333 1.088ZM5.214 4.268c1.715-.857 3.998-1.352 6.451-1.352 2.454 0 4.736.495 6.452 1.352 1.64.82 3.132 2.186 3.132 4.065 0 1.879-1.491 3.243-3.132 4.064-1.716.858-3.999 1.352-6.452 1.352s-4.736-.494-6.451-1.352c-1.641-.82-3.132-2.185-3.132-4.064 0-1.88 1.49-3.244 3.132-4.065Z" fill="#25A4C4"/><path fill-rule="evenodd" clip-rule="evenodd" d="M3.332 7.084c.69 0 1.25.56 1.25 1.25h-2.5c0-.69.56-1.25 1.25-1.25Zm16.667 1.25h1.25v5.833c0 1.88-1.491 3.244-3.132 4.065-1.716.858-3.999 1.352-6.452 1.352s-4.736-.494-6.451-1.352c-1.641-.82-3.132-2.186-3.132-4.065V8.334h2.5v5.833c0 .422.375 1.141 1.75 1.829 1.3.65 3.184 1.088 5.333 1.088 2.15 0 4.034-.438 5.334-1.088 1.375-.688 1.75-1.407 1.75-1.829V8.334h1.25Zm0 0h1.25a1.25 1.25 0 1 0-2.5 0h1.25Z" fill="#25A4C4"/><path fill-rule="evenodd" clip-rule="evenodd" d="M3.332 12.916c.69 0 1.25.56 1.25 1.25h-2.5c0-.69.56-1.25 1.25-1.25Zm16.667 1.25h1.25V20c0 1.88-1.491 3.244-3.132 4.065-1.716.858-3.999 1.352-6.452 1.352s-4.736-.494-6.451-1.352c-1.641-.82-3.132-2.186-3.132-4.065v-5.833h2.5v5.833c0 .422.375 1.141 1.75 1.829 1.3.65 3.184 1.088 5.333 1.088 2.15 0 4.034-.438 5.334-1.088 1.375-.688 1.75-1.407 1.75-1.829v-5.833h1.25Zm0 0h1.25a1.25 1.25 0 1 0-2.5 0h1.25Z" fill="#25A4C4"/><path fill-rule="evenodd" clip-rule="evenodd" d="M3.332 18.75c.69 0 1.25.56 1.25 1.25h-2.5c0-.69.56-1.25 1.25-1.25ZM19.999 20h1.25v5.833c0 1.88-1.491 3.244-3.132 4.065-1.716.858-3.999 1.352-6.452 1.352s-4.736-.494-6.451-1.352c-1.641-.82-3.132-2.186-3.132-4.065V20h2.5v5.833c0 .422.375 1.141 1.75 1.829 1.3.65 3.184 1.088 5.333 1.088 2.15 0 4.034-.438 5.334-1.088 1.375-.688 1.75-1.407 1.75-1.829V20h1.25Zm0 0h1.25a1.25 1.25 0 1 0-2.5 0h1.25Z" fill="#25A4C4"/><path fill-rule="evenodd" clip-rule="evenodd" d="M3.332 24.584c.69 0 1.25.56 1.25 1.25h-2.5c0-.69.56-1.25 1.25-1.25Zm16.667 1.25h1.25v5.833c0 1.88-1.491 3.244-3.132 4.065-1.716.858-3.999 1.352-6.452 1.352s-4.736-.495-6.451-1.352c-1.641-.82-3.132-2.186-3.132-4.065v-5.833h2.5v5.833c0 .422.375 1.141 1.75 1.829 1.3.65 3.184 1.088 5.333 1.088 2.15 0 4.034-.438 5.334-1.088 1.375-.688 1.75-1.407 1.75-1.829v-5.833h1.25Zm0 0h1.25a1.25 1.25 0 0 0-2.5 0h1.25ZM23 18.172c-1.375.688-1.75 1.407-1.75 1.829 0 .422.375 1.14 1.75 1.828 1.3.65 3.184 1.088 5.333 1.088 2.15 0 4.034-.438 5.334-1.088 1.375-.688 1.75-1.406 1.75-1.828 0-.422-.375-1.141-1.75-1.829-1.3-.65-3.184-1.088-5.334-1.088-2.149 0-4.033.438-5.333 1.088Zm-1.118-2.236c1.715-.857 3.998-1.352 6.451-1.352 2.454 0 4.736.495 6.452 1.352 1.64.82 3.132 2.186 3.132 4.065 0 1.879-1.491 3.243-3.132 4.064-1.716.858-3.998 1.352-6.452 1.352-2.453 0-4.736-.494-6.451-1.352-1.641-.82-3.132-2.185-3.132-4.064 0-1.88 1.49-3.244 3.132-4.065Z" fill="#25A4C4"/><path fill-rule="evenodd" clip-rule="evenodd" d="M20 18.75c.69 0 1.25.56 1.25 1.25h-2.5c0-.69.56-1.25 1.25-1.25ZM36.667 20h1.25v5.833c0 1.88-1.491 3.244-3.132 4.065-1.716.858-3.998 1.352-6.452 1.352-2.453 0-4.735-.494-6.451-1.352-1.641-.82-3.132-2.186-3.132-4.065V20h2.5v5.833c0 .422.375 1.141 1.75 1.829 1.3.65 3.184 1.088 5.333 1.088 2.15 0 4.034-.438 5.334-1.088 1.375-.688 1.75-1.407 1.75-1.829V20h1.25Zm0 0h1.25a1.25 1.25 0 1 0-2.5 0h1.25Z" fill="#25A4C4"/><path fill-rule="evenodd" clip-rule="evenodd" d="M20 24.584c.69 0 1.25.56 1.25 1.25h-2.5c0-.69.56-1.25 1.25-1.25Zm16.667 1.25h1.25v5.833c0 1.88-1.491 3.244-3.132 4.065-1.716.858-3.998 1.352-6.452 1.352-2.453 0-4.735-.495-6.451-1.352-1.641-.82-3.132-2.186-3.132-4.065v-5.833h2.5v5.833c0 .422.375 1.141 1.75 1.829 1.3.65 3.184 1.088 5.333 1.088 2.15 0 4.034-.438 5.334-1.088 1.375-.688 1.75-1.407 1.75-1.829v-5.833h1.25Zm0 0h1.25a1.25 1.25 0 0 0-2.5 0h1.25Z" fill="#25A4C4"/></svg>