<svg width="40" height="40" viewBox="0 0 40 40" fill="none" xmlns="http://www.w3.org/2000/svg"><path fill-rule="evenodd" clip-rule="evenodd" d="M5.835 7.916a.417.417 0 0 0-.417.417v23.333c0 .23.187.417.417.417h28.333c.23 0 .417-.187.417-.417V8.333a.417.417 0 0 0-.417-.417H5.835Zm-2.917.417a2.917 2.917 0 0 1 2.917-2.917h28.333a2.917 2.917 0 0 1 2.917 2.917v23.333a2.917 2.917 0 0 1-2.917 2.917H5.835a2.917 2.917 0 0 1-2.917-2.917V8.333Z" fill="#fff"/><path fill-rule="evenodd" clip-rule="evenodd" d="M9.586 13.75a2.5 2.5 0 1 1 5 0 2.5 2.5 0 0 1-5 0ZM20.719 16.686a1.25 1.25 0 0 1 1.708-.179L36.594 27.34c.31.237.49.604.49.993v3.334a2.917 2.917 0 0 1-2.916 2.916H5.835a2.917 2.917 0 0 1-2.917-2.916v-3.334c0-.331.132-.65.366-.883l8.333-8.334a1.25 1.25 0 0 1 1.665-.092l3.223 2.578 4.214-4.916Zm1.129 2.525-4.231 4.936a1.25 1.25 0 0 1-1.73.163l-3.293-2.635-7.176 7.176v2.816c0 .23.187.416.417.416h28.333c.23 0 .417-.186.417-.416V28.95l-12.737-9.74Z" fill="#fff"/></svg>