<svg width="40" height="40" viewBox="0 0 40 40" fill="none" xmlns="http://www.w3.org/2000/svg"><path fill-rule="evenodd" clip-rule="evenodd" d="M19.165 12.916c.434 0 .837.225 1.065.595l13.333 21.667a1.25 1.25 0 0 1-1.064 1.905H5.832a1.25 1.25 0 0 1-1.065-1.905L18.101 13.51a1.25 1.25 0 0 1 1.064-.595ZM8.07 34.583h22.193L19.165 16.55 8.07 34.583Z" fill="#25A4C4"/><path fill-rule="evenodd" clip-rule="evenodd" d="M13.995 20.184a1.25 1.25 0 0 1 1.718-.417l3.452 2.103 3.452-2.103a1.25 1.25 0 0 1 1.301 2.135l-4.102 2.5a1.25 1.25 0 0 1-1.301 0l-4.103-2.5a1.25 1.25 0 0 1-.417-1.718ZM19.168 2.084c.69 0 1.25.56 1.25 1.25v10.833a1.25 1.25 0 0 1-2.5 0V3.334c0-.69.56-1.25 1.25-1.25Z" fill="#25A4C4"/><path fill-rule="evenodd" clip-rule="evenodd" d="M17.918 3.334c0-.69.56-1.25 1.25-1.25h10a1.25 1.25 0 0 1 1 2L28.23 6.667l1.938 2.584a1.25 1.25 0 0 1-1 2h-10c-.69 0-1.25-.56-1.25-1.25V3.334Zm2.5 1.25v4.167h6.25l-1-1.334a1.25 1.25 0 0 1 0-1.5l1-1.333h-6.25Z" fill="#25A4C4"/></svg>