<svg width="40" height="40" viewBox="0 0 40 40" fill="none" xmlns="http://www.w3.org/2000/svg"><path fill-rule="evenodd" clip-rule="evenodd" d="M3.75 20c0-8.975 7.275-16.25 16.25-16.25a1.25 1.25 0 1 1 0 2.5C12.406 6.25 6.25 12.406 6.25 20S12.406 33.75 20 33.75 33.75 27.594 33.75 20a1.25 1.25 0 1 1 2.5 0c0 8.975-7.275 16.25-16.25 16.25S3.75 28.975 3.75 20Z" fill="#fff"/><path fill-rule="evenodd" clip-rule="evenodd" d="M11.25 20A8.75 8.75 0 0 1 20 11.25a1.25 1.25 0 1 1 0 2.5A6.25 6.25 0 1 0 26.25 20a1.25 1.25 0 1 1 2.5 0 8.75 8.75 0 1 1-17.5 0Z" fill="#fff"/><path fill-rule="evenodd" clip-rule="evenodd" d="M26.134 13.862a1.25 1.25 0 0 1 0 1.768l-5.25 5.254a1.25 1.25 0 0 1-1.768-1.767l5.25-5.254a1.25 1.25 0 0 1 1.768-.001Z" fill="#fff"/><path fill-rule="evenodd" clip-rule="evenodd" d="M30.23 3.845c.468.193.773.649.773 1.155v4H35a1.25 1.25 0 0 1 .886 2.132l-4.48 4.5a1.25 1.25 0 0 1-.885.368H25.25c-.69 0-1.25-.56-1.25-1.25V9.522c0-.33.131-.648.364-.882l4.503-4.522a1.25 1.25 0 0 1 1.363-.273Zm-3.73 6.193V13.5h3.502l1.99-2h-2.24c-.69 0-1.25-.56-1.25-1.25V8.027L26.5 10.038Z" fill="#fff"/></svg>