<svg width="41" height="40" viewBox="0 0 41 40" fill="none" xmlns="http://www.w3.org/2000/svg"><path fill-rule="evenodd" clip-rule="evenodd" d="M2.582 5.834c0-.69.56-1.25 1.25-1.25h33.333c.69 0 1.25.56 1.25 1.25v21.667c0 .69-.56 1.25-1.25 1.25H3.832c-.69 0-1.25-.56-1.25-1.25V5.834Zm2.5 1.25v19.167h30.833V7.084H5.082Z" fill="#25A4C4"/><path fill-rule="evenodd" clip-rule="evenodd" d="M13.832 17.084c.69 0 1.25.56 1.25 1.25v3.333a1.25 1.25 0 1 1-2.5 0v-3.333c0-.69.56-1.25 1.25-1.25ZM20.5 26.25c.69 0 1.25.56 1.25 1.25v5a1.25 1.25 0 1 1-2.5 0v-5c0-.69.56-1.25 1.25-1.25ZM20.5 13.75c.69 0 1.25.56 1.25 1.25v6.667a1.25 1.25 0 0 1-2.5 0V15c0-.69.56-1.25 1.25-1.25ZM27.164 10.418c.69 0 1.25.56 1.25 1.25v10a1.25 1.25 0 0 1-2.5 0v-10c0-.69.56-1.25 1.25-1.25Z" fill="#25A4C4"/><path fill-rule="evenodd" clip-rule="evenodd" d="M9.25 34.168c0-.69.56-1.25 1.25-1.25h20a1.25 1.25 0 1 1 0 2.5h-20c-.69 0-1.25-.56-1.25-1.25Z" fill="#25A4C4"/></svg>