<svg width="210" height="56" viewBox="0 0 210 56" fill="none" xmlns="http://www.w3.org/2000/svg"><mask id="a" fill="#fff"><path fill-rule="evenodd" clip-rule="evenodd" d="M191.333 0H0v56-18.667L18.667 56H210V0v18.667L191.333 0Z"/></mask><path d="M0 0v-1h-1v1h1Zm191.333 0 .707-.707-.293-.293h-.414v1ZM0 56h-1v1h1v-1Zm0 0v1h1v-1H0Zm0-18.667.707-.707L-1 34.92v2.414h1ZM18.667 56l-.707.707.293.293h.414v-1ZM210 56v1h1v-1h-1Zm0-56h1v-1h-1v1Zm0 0v-1h-1v1h1Zm0 18.667-.707.707L211 21.08v-2.414h-1ZM0 1h191.333v-2H0v2Zm1 55V0h-2v56h2Zm-1-1v2-2Zm-1-17.667V56h2V37.333h-2Zm20.374 17.96L.707 36.626-.707 38.04 17.96 56.707l1.414-1.414ZM210 55H18.667v2H210v-2Zm-1-55v56h2V0h-2Zm1 1v-2 2Zm1 17.667V0h-2v18.667h2ZM190.626.707l18.667 18.667 1.414-1.414L192.04-.707 190.626.707Z" fill="#25A4C4" mask="url(#a)"/></svg>