<svg width="30" height="30" viewBox="0 0 30 30" fill="none" xmlns="http://www.w3.org/2000/svg"><path d="M16.25 3.75v7.5h7.5" stroke="#fff" stroke-width="1.5" stroke-linejoin="round"/><path d="M22.871 9.121 18.38 4.63a3 3 0 0 0-2.122-.879H9.25a3 3 0 0 0-3 3v16.5a3 3 0 0 0 3 3h11.5a3 3 0 0 0 3-3V11.243a3 3 0 0 0-.879-2.122Z" stroke="#fff" stroke-width="1.5" stroke-linecap="round" stroke-linejoin="round"/><path d="M16.772 18.322a3.749 3.749 0 0 1-1.555-1.977c.255-.766.333-1.58.225-2.381a.953.953 0 0 0-.818-.786.948.948 0 0 0-.987.56 5.97 5.97 0 0 0 .297 2.857 34.59 34.59 0 0 1-1.508 3.096c-.843.476-1.995 1.19-2.173 2.012-.142.667 1.105 2.382 3.23-1.333a22.025 22.025 0 0 1 2.898-.858c.727.418 1.539.666 2.374.727a.973.973 0 0 0 .986-1.137.978.978 0 0 0-.25-.506c-.498-.512-1.982-.37-2.719-.274Zm-5.676 3.572a5.14 5.14 0 0 1 1.295-1.476c-.808 1.285-1.295 1.512-1.295 1.488v-.012Zm3.468-8.11c.308 0 .285 1.37.07 1.74a3.666 3.666 0 0 1-.07-1.727v-.012Zm-1.033 5.812c.402-.736.751-1.5 1.045-2.286a4.615 4.615 0 0 0 1.282 1.5c-.797.2-1.575.467-2.327.798v-.012Zm5.58-.215s-.213.262-1.579-.333c1.485-.095 1.734.25 1.58.345v-.012Z" fill="#fff"/></svg>