<svg width="124" height="36" viewBox="0 0 124 36" fill="none" xmlns="http://www.w3.org/2000/svg"><g clip-path="url(#a)"><path d="M68.727 1.029 71.808 0l-7.311 15.375h-2.611L54.574 0l3.081 1.029 5.536 11.621L68.727 1.03Zm6.737 14.346h-2.977V4.217h2.977v11.158Zm-.47-12.855a1.527 1.527 0 0 1-2.09 0 1.622 1.622 0 0 1-.417-1.028 1.415 1.415 0 0 1 .418-1.029A1.389 1.389 0 0 1 73.949 0a1.334 1.334 0 0 1 1.045.463 1.298 1.298 0 0 1 .47 1.029 1.437 1.437 0 0 1-.47 1.028Zm7.415 10.49h6.998l.784 2.365h-8.722a4.71 4.71 0 0 1-3.237-1.234 3.607 3.607 0 0 1-1.02-1.284 3.553 3.553 0 0 1-.338-1.595V8.279c-.008-.55.11-1.093.345-1.592A3.668 3.668 0 0 1 78.232 5.4c.857-.805 2-1.248 3.185-1.234h8.722l-.784 2.365H82.41a2.12 2.12 0 0 0-1.723.617c-.245.198-.439.45-.566.736a1.953 1.953 0 0 0-.165.91v1.954c-.03.312.02.628.149.916.127.288.328.539.582.729a2.72 2.72 0 0 0 1.723.617Zm13.16-2.16c-1.148-.051-1.827-.205-2.088-.462v.668c-.018.304.039.608.166.886.127.277.321.52.565.708a2.72 2.72 0 0 0 1.723.617h7.625l-.731 2.108h-7.781a4.71 4.71 0 0 1-3.238-1.234 3.436 3.436 0 0 1-.993-1.285 3.401 3.401 0 0 1-.365-1.594V8.279c-.008-.55.11-1.093.345-1.592A3.67 3.67 0 0 1 91.81 5.4a4.583 4.583 0 0 1 3.185-1.234h4.91a7.509 7.509 0 0 1 2.297.308 3.087 3.087 0 0 1 1.41.823c.28.305.51.652.679 1.028.15.359.221.744.209 1.132a5.51 5.51 0 0 1-.052.925 3.584 3.584 0 0 1-.313.874 2.21 2.21 0 0 1-.732.823 4.726 4.726 0 0 1-1.253.566 7.17 7.17 0 0 1-1.932.205H95.57Zm5.171-4.782h-5.536a4.725 4.725 0 0 0-.574.103c-.204.028-.4.098-.575.206a3.105 3.105 0 0 0-.417.411c-.113.223-.167.47-.157.72.005.193.04.384.104.566.075.144.163.281.262.411.131.097.27.183.417.257.15.059.309.093.47.103.157 0 .261.051.366.051h5.118c1.305 0 1.984-.462 1.984-1.44a1.341 1.341 0 0 0-.122-.564 1.37 1.37 0 0 0-.348-.464 1.192 1.192 0 0 0-.992-.36ZM68.727 21.597l3.081-1.029-7.311 15.375h-2.611l-7.312-15.375 3.081 1.029 5.536 11.672 5.536-11.672Zm6.946 9.821c-1.15-.051-1.828-.205-2.09-.463v.669c-.018.304.04.608.167.886.127.277.321.52.565.708a2.72 2.72 0 0 0 1.723.617h7.625l-.731 2.108h-7.73a4.71 4.71 0 0 1-3.237-1.234 3.833 3.833 0 0 1-.997-1.294 3.778 3.778 0 0 1-.361-1.585v-2.983c-.008-.55.11-1.094.345-1.592a3.67 3.67 0 0 1 1.013-1.287 4.582 4.582 0 0 1 3.185-1.235h4.91a7.515 7.515 0 0 1 2.297.309 3.086 3.086 0 0 1 1.41.823c.28.305.51.652.68 1.028.124.365.194.746.208 1.131a5.51 5.51 0 0 1-.052.926 3.565 3.565 0 0 1-.313.874c-.17.33-.422.614-.732.823-.387.248-.81.439-1.253.566a7.166 7.166 0 0 1-1.932.205h-4.7Zm5.17-4.782h-5.536a4.717 4.717 0 0 0-.574.103c-.204.028-.4.098-.575.206a3.112 3.112 0 0 0-.418.411c-.112.223-.166.47-.156.72.004.193.04.383.104.566.056.154.145.294.261.41.132.098.272.184.418.258.15.059.309.093.47.103.157 0 .261.051.366.051h5.117c1.306 0 1.985-.463 1.985-1.44a1.35 1.35 0 0 0-.47-1.028 1.444 1.444 0 0 0-.992-.36Zm11.019-1.8h4.23l-.835 2.366H93.22c-.563-.001-1.12.108-1.64.32a4.28 4.28 0 0 0-1.39.913 4.209 4.209 0 0 0-.928 1.369 4.154 4.154 0 0 0-.325 1.614v4.577h-3.08V24.836h3.133v1.954l.47-.668c.267-.4.624-.735 1.044-.977a2.783 2.783 0 0 1 1.358-.309Zm16.189 5.451c.573.65.888 1.48.888 2.34 0 .86-.315 1.69-.888 2.34-.299.33-.671.59-1.087.76-.416.168-.866.242-1.315.216h-9.14l.628-1.902h7.99a1.324 1.324 0 0 0 .94-.412c.122-.12.218-.265.281-.425.063-.16.092-.33.084-.5a1.43 1.43 0 0 0-.365-.977.91.91 0 0 0-.836-.36h-5.588a2.917 2.917 0 0 1-1.29-.218c-.408-.17-.77-.43-1.06-.76a3.325 3.325 0 0 1-.94-2.313c0-.862.336-1.69.94-2.314a2.728 2.728 0 0 1 1.052-.775c.41-.17.855-.24 1.298-.202h8.408l-.574 1.902h-7.207a.984.984 0 0 0-.836.36 1.238 1.238 0 0 0-.365.926 1.42 1.42 0 0 0 .313.926 1.304 1.304 0 0 0 .94.411h5.379c.44-.014.878.066 1.284.234.406.17.77.422 1.066.743Zm15.041-4.628c.672.806.991 1.842.888 2.88v7.456h-2.977v-1.44a7.184 7.184 0 0 1-4.178 1.44h-3.447a3.63 3.63 0 0 1-1.469-.23 3.588 3.588 0 0 1-1.247-.799 3.162 3.162 0 0 1-.779-1.072 3.112 3.112 0 0 1-.265-1.293c-.022-.454.06-.908.241-1.326.181-.419.455-.792.803-1.09a3.805 3.805 0 0 1 1.23-.892 3.852 3.852 0 0 1 1.486-.343h7.625v-.154a1.666 1.666 0 0 0-.522-1.234 1.678 1.678 0 0 0-1.358-.515h-8.722l.627-2.262h9.609c.448-.029.898.034 1.32.184.423.15.809.386 1.135.69Zm-2.089 6.685V30.75h-6.633a1.721 1.721 0 0 0-1.253.514 1.627 1.627 0 0 0-.47 1.183c-.003.438.166.862.47 1.182a1.819 1.819 0 0 0 1.306.515h2.245a6.043 6.043 0 0 0 2.355-.462 5.973 5.973 0 0 0 1.98-1.338Z" fill="#262626"/><mask id="b" style="mask-type:luminance" maskUnits="userSpaceOnUse" x="0" y="0" width="49" height="36"><path d="M48.568 0H0v35.995h48.568V0Z" fill="#fff"/></mask><g mask="url(#b)"><path d="M41.203 0 25.379 35.995h7.938L48.618 0h-7.415Z" fill="#25A4C4"/><path d="M25.38 35.995 9.815 0h7.782l11.75 26.945-3.969 9.05Z" fill="#E84027"/><path d="M31.386 0 15.563 35.995H23.5L38.802 0h-7.416Z" fill="#25A4C4"/><path d="M15.563 35.995 0 0h7.781l11.75 26.945-3.968 9.05Z" fill="#E84027"/></g></g><defs><clipPath id="a"><path fill="#fff" d="M0 0h124v36H0z"/></clipPath></defs></svg>