<svg width="40" height="40" viewBox="0 0 40 40" fill="none" xmlns="http://www.w3.org/2000/svg"><path fill-rule="evenodd" clip-rule="evenodd" d="M13.788 13.314c-.775 0-1.258.694-1.037 1.35.794 2.351 2.272 5.888 4.477 8.093 2.205 2.205 5.742 3.684 8.093 4.477.656.221 1.35-.262 1.35-1.037V23.81a.235.235 0 0 0-.12-.206l-2.08-1.156a.236.236 0 0 0-.22-.005l-2.218 1.11a.705.705 0 0 1-.449.061l.134-.693-.134.693h-.004l-.007-.002-.021-.005a5.084 5.084 0 0 1-.308-.079 6.977 6.977 0 0 1-.795-.284 7.077 7.077 0 0 1-2.223-1.485 7.11 7.11 0 0 1-1.487-2.225 7.037 7.037 0 0 1-.35-1.034 4.183 4.183 0 0 1-.016-.07l-.005-.021-.001-.007v-.004l.692-.136-.693.136a.708.708 0 0 1 .061-.451l1.11-2.219a.235.235 0 0 0-.005-.219l-1.151-2.074a.235.235 0 0 0-.206-.12h-2.387Zm4.02 5.03c.044.153.117.374.229.635.224.524.596 1.19 1.188 1.782m0 0a5.665 5.665 0 0 0 1.778 1.184 5.574 5.574 0 0 0 .632.227l1.985-.991a1.647 1.647 0 0 1 1.537.033l2.08 1.156c.522.291.846.842.846 1.44v2.388c0 1.657-1.565 2.93-3.213 2.374-2.38-.804-6.19-2.365-8.64-4.816-2.451-2.451-4.013-6.26-4.816-8.64-.556-1.649.717-3.214 2.374-3.214h2.387c.598 0 1.15.325 1.44.848l1.151 2.074c.264.475.276 1.05.033 1.536l-.991 1.983" fill="#25A4C4"/><rect x=".5" y=".5" width="39" height="39" rx="19.5" stroke="#25A4C4"/></svg>