<svg width="16" height="16" viewBox="0 0 16 16" fill="none" xmlns="http://www.w3.org/2000/svg"><path fill-rule="evenodd" clip-rule="evenodd" d="M1.5 3A1.5 1.5 0 0 1 3 1.5h10A1.5 1.5 0 0 1 14.5 3v10a1.5 1.5 0 0 1-1.5 1.5H3A1.5 1.5 0 0 1 1.5 13V3ZM3 2.5a.5.5 0 0 0-.5.5v10a.5.5 0 0 0 .5.5h10a.5.5 0 0 0 .5-.5V3a.5.5 0 0 0-.5-.5H3Z" fill="#EE3F22"/><path d="M5.999 7.667a1.667 1.667 0 1 0 0-3.334 1.667 1.667 0 0 0 0 3.334Z" fill="#EE3F22"/><path fill-rule="evenodd" clip-rule="evenodd" d="M3.832 6a2.167 2.167 0 1 1 4.333 0 2.167 2.167 0 0 1-4.333 0Zm2.167-1.167a1.167 1.167 0 1 0 0 2.334 1.167 1.167 0 0 0 0-2.334ZM9.999 8.295a.5.5 0 0 1 .67.002l3.667 3.333a.5.5 0 0 1-.672.74l-3.332-3.029-2.997 2.697a.5.5 0 0 1-.66.008l-2.03-1.739-2.345 1.76a.5.5 0 1 1-.6-.8l2.667-2a.5.5 0 0 1 .625.02l2 1.714 3.007-2.706Z" fill="#EE3F22"/></svg>