<svg width="24" height="25" viewBox="0 0 24 25" fill="none" xmlns="http://www.w3.org/2000/svg"><path fill-rule="evenodd" clip-rule="evenodd" d="M22 12.418c0 5.523-4.477 10-10 10s-10-4.477-10-10 4.477-10 10-10 10 4.477 10 10ZM12.663 9.78a486.8 486.8 0 0 0-5.907 2.512c-.48.189-.73.373-.753.553-.039.304.347.424.873.587l.221.07c.517.166 1.213.36 1.575.368.328.007.694-.127 1.098-.4 2.76-1.84 4.183-2.769 4.273-2.789.063-.014.15-.032.21.02.059.052.053.15.046.177-.038.16-1.553 1.552-2.337 2.271-.245.225-.418.384-.454.42-.079.082-.16.159-.238.233-.48.457-.84.8.02 1.36.414.27.745.492 1.075.714.36.242.72.484 1.186.785.118.077.232.156.342.234.42.296.796.56 1.262.518.271-.024.55-.275.693-1.025.335-1.77.995-5.608 1.147-7.19a1.739 1.739 0 0 0-.017-.393.42.42 0 0 0-.144-.27c-.121-.098-.309-.118-.392-.117-.381.007-.966.207-3.779 1.362Z" fill="#fff"/></svg>