<svg width="741" height="538" viewBox="0 0 741 538" fill="none" xmlns="http://www.w3.org/2000/svg"><path d="m589 148.5-182 282-291-61" stroke="#25A4C4" stroke-width="2" stroke-dasharray="5 5"/><g filter="url(#a)"><circle cx="590" cy="151" r="120" fill="#fff"/></g><circle cx="590.5" cy="151.5" r="94.5" fill="#E9F6FA"/><path d="M565.6 151.567a9.023 9.023 0 0 1-3.873-.85 9.312 9.312 0 0 1-3.099-2.362 9.106 9.106 0 0 1-1.87-3.514l4.95-1.323a3.9 3.9 0 0 0 .869 1.663c.428.466.919.831 1.474 1.096a4.235 4.235 0 0 0 1.738.378c.781 0 1.492-.189 2.135-.567a4.198 4.198 0 0 0 1.549-1.531c.39-.642.586-1.354.586-2.135 0-.78-.196-1.492-.586-2.134a4.198 4.198 0 0 0-1.549-1.531 4.133 4.133 0 0 0-2.135-.567c-.957 0-1.738.164-2.343.492-.604.315-1.058.617-1.36.906l-4.346-1.322.832-14.472h14.85v4.799h-12.016l1.813-1.701-.566 9.333-.87-1.058a6.516 6.516 0 0 1 2.324-1.209c.869-.252 1.682-.378 2.438-.378 1.713 0 3.218.385 4.515 1.153a7.972 7.972 0 0 1 3.061 3.136c.743 1.323 1.114 2.84 1.114 4.553s-.447 3.263-1.341 4.648a9.954 9.954 0 0 1-3.533 3.288c-1.461.806-3.048 1.209-4.761 1.209Zm24.254 0c-2.015 0-3.779-.422-5.29-1.266a8.992 8.992 0 0 1-3.533-3.533c-.844-1.512-1.266-3.275-1.266-5.29v-8.162c0-2.015.422-3.779 1.266-5.29a8.986 8.986 0 0 1 3.533-3.533c1.511-.844 3.275-1.266 5.29-1.266s3.778.422 5.29 1.266a8.992 8.992 0 0 1 3.533 3.533c.844 1.511 1.266 3.275 1.266 5.29v8.162c0 2.015-.422 3.778-1.266 5.29a8.999 8.999 0 0 1-3.533 3.533c-1.512.844-3.275 1.266-5.29 1.266Zm0-4.875c.907 0 1.725-.214 2.456-.642a4.795 4.795 0 0 0 1.738-1.738c.428-.731.642-1.549.642-2.456V132.9c0-.907-.214-1.725-.642-2.456a4.795 4.795 0 0 0-1.738-1.738c-.731-.428-1.549-.642-2.456-.642s-1.726.214-2.456.642a4.787 4.787 0 0 0-1.738 1.738c-.429.731-.643 1.549-.643 2.456v8.956c0 .907.214 1.725.643 2.456a4.787 4.787 0 0 0 1.738 1.738c.73.428 1.549.642 2.456.642Zm21.532-.793v-6.537h-6.537v-3.968h6.537v-6.499h3.967v6.499h6.499v3.968h-6.499v6.537h-3.967Z" fill="#ED553B"/><path d="M551.451 183v-11.903h1.992v5.522l4.753-5.522h2.447l-5.117 5.836L560.99 183h-2.529l-5.018-5.555V183h-1.992Zm9.215 0v-1.67c.325.061.576.055.752-.016.177-.077.309-.221.397-.43.088-.209.166-.488.232-.835.088-.49.165-1.055.231-1.694.072-.64.132-1.323.182-2.05.055-.728.105-1.472.149-2.232h6.571V183h-1.984v-7.059h-2.835a132.164 132.164 0 0 1-.223 2.546c-.044.452-.094.882-.149 1.289-.049.403-.102.747-.157 1.034-.127.644-.309 1.154-.545 1.529a1.557 1.557 0 0 1-.976.719c-.419.11-.967.091-1.645-.058Zm18.573-8.927V183h-1.909v-5.827L573.081 183h-1.595v-8.927h1.909v5.679l4.265-5.679h1.579Zm6.38 9.175c-.904 0-1.698-.196-2.381-.587a4.184 4.184 0 0 1-1.604-1.628c-.38-.695-.57-1.494-.57-2.397 0-.976.187-1.822.562-2.538a4.113 4.113 0 0 1 1.562-1.678c.667-.397 1.439-.595 2.315-.595.926 0 1.711.218 2.356.653.65.43 1.132 1.039 1.446 1.827.314.788.433 1.716.355 2.785h-1.975v-.727c-.006-.97-.176-1.678-.513-2.124-.336-.447-.865-.67-1.587-.67-.815 0-1.421.254-1.818.761-.397.501-.595 1.237-.595 2.206 0 .904.198 1.604.595 2.1.397.496.975.744 1.736.744.49 0 .912-.108 1.264-.322.359-.221.634-.538.827-.951l1.967.595a3.975 3.975 0 0 1-1.587 1.876 4.336 4.336 0 0 1-2.355.67Zm-3.075-4.158v-1.504h6.141v1.504h-6.141Zm8.944 3.91v-8.927h1.992v3.521h4.009v-3.521h1.992V183h-1.992v-3.538h-4.009V183h-1.992Zm12.541 0v-7.158h-2.984v-1.769h7.96v1.769h-2.984V183h-1.992Zm10.323.248c-.892 0-1.672-.201-2.339-.603a4.15 4.15 0 0 1-1.554-1.662c-.364-.711-.545-1.526-.545-2.447 0-.936.187-1.757.562-2.463a4.14 4.14 0 0 1 1.562-1.653c.667-.397 1.438-.595 2.314-.595.899 0 1.681.201 2.348.603a4.133 4.133 0 0 1 1.554 1.67c.369.705.554 1.518.554 2.438 0 .926-.188 1.745-.563 2.455a4.142 4.142 0 0 1-1.553 1.662c-.667.397-1.447.595-2.34.595Zm0-1.868c.794 0 1.383-.265 1.769-.794.386-.529.579-1.212.579-2.05 0-.865-.196-1.553-.587-2.066-.391-.518-.978-.777-1.761-.777-.534 0-.975.121-1.322.364-.342.237-.595.57-.761 1-.165.424-.248.917-.248 1.479 0 .866.196 1.557.587 2.075.397.513.978.769 1.744.769Zm6.26 1.62v-8.927h4.059c.292 0 .565.016.818.05.254.033.471.074.653.124.43.126.81.374 1.141.743.33.364.496.868.496 1.513 0 .38-.061.694-.182.942a1.862 1.862 0 0 1-1.066.943 1.991 1.991 0 0 1 1.372.851c.209.292.314.703.314 1.232 0 .6-.146 1.107-.438 1.521-.287.407-.708.691-1.265.851a4.56 4.56 0 0 1-.703.124 9.752 9.752 0 0 1-.81.033h-4.389Zm2.017-1.537h2.232a2.422 2.422 0 0 0 .752-.124.738.738 0 0 0 .43-.381c.094-.181.14-.372.14-.57 0-.27-.069-.485-.206-.645a.951.951 0 0 0-.48-.33 1.106 1.106 0 0 0-.363-.075 3.746 3.746 0 0 0-.314-.016h-2.191v2.141Zm0-3.704h1.653c.171 0 .336-.008.496-.024a1.47 1.47 0 0 0 .413-.108.713.713 0 0 0 .397-.363c.088-.171.132-.361.132-.571 0-.22-.049-.419-.148-.595a.711.711 0 0 0-.455-.364 1.488 1.488 0 0 0-.504-.091 20.955 20.955 0 0 0-.372-.008h-1.612v2.124Z" fill="#232323"/><path d="M590 74.439a76.563 76.563 0 0 0-70.734 105.86A76.57 76.57 0 0 0 590 227.561c10.054 0 20.01-1.98 29.299-5.827A76.57 76.57 0 0 0 666.561 151c0-10.054-1.98-20.01-5.827-29.299a76.57 76.57 0 0 0-41.435-41.434A76.563 76.563 0 0 0 590 74.438h0Z" stroke="#ED553B" stroke-width="3.123" stroke-linecap="round"/><g filter="url(#b)"><ellipse cx="411" cy="422.5" rx="85" ry="84.5" fill="#fff"/></g><g filter="url(#c)"><ellipse cx="411" cy="423.5" rx="72" ry="72.5" fill="#E9F6FA"/></g><path d="M403.699 418.376a7.315 7.315 0 0 1-2.976-.622 7.52 7.52 0 0 1-2.47-1.776 6.691 6.691 0 0 1-1.487-2.686l3.813-1.011c.202.76.597 1.352 1.184 1.776a3.33 3.33 0 0 0 1.936.621c.597 0 1.141-.144 1.632-.433.5-.289.895-.679 1.184-1.17a3.086 3.086 0 0 0 .448-1.632c0-.896-.308-1.661-.925-2.297-.606-.645-1.386-.967-2.339-.967-.289 0-.569.043-.838.13-.27.077-.53.187-.78.332l-1.762-3.091 6.615-5.488.289.837h-9.648v-3.697h12.999v3.697l-5.142 4.969-.029-1.098c1.194.183 2.2.602 3.018 1.257a6.17 6.17 0 0 1 1.878 2.397c.433.944.65 1.95.65 3.019 0 1.309-.332 2.489-.997 3.538a7.359 7.359 0 0 1-2.643 2.485c-1.097.606-2.301.91-3.61.91Zm12.04-.376 6.99-17.101h-8.897v-3.697h13.115v3.697L419.985 418h-4.246Z" fill="#ED553B"/><path d="M390.581 437.781v-3.997l.244.387c-.246.204-.579.365-1 .481-.42.113-.868.169-1.343.169-.757 0-1.361-.148-1.811-.444a2.488 2.488 0 0 1-.974-1.224c-.2-.52-.3-1.122-.3-1.805v-2.561h1.524v2.099c0 .308.017.612.05.912.037.296.117.564.237.806.125.241.315.435.569.58.254.142.597.213 1.03.213.483 0 .895-.081 1.237-.244.341-.162.583-.335.724-.518l-.187.756v-4.604h1.511v8.994h-1.511Zm6.324.188c-.683 0-1.282-.148-1.799-.444a3.154 3.154 0 0 1-1.211-1.23c-.288-.525-.431-1.129-.431-1.811 0-.737.141-1.377.424-1.918a3.113 3.113 0 0 1 1.181-1.268c.504-.3 1.087-.449 1.749-.449.699 0 1.293.164 1.78.493.491.325.855.785 1.093 1.38.237.596.327 1.297.268 2.105h-1.492v-.55c-.005-.732-.134-1.267-.388-1.605-.254-.337-.653-.506-1.199-.506-.616 0-1.074.192-1.374.575-.3.379-.45.935-.45 1.668 0 .682.15 1.211.45 1.586.3.375.737.562 1.312.562.37 0 .689-.081.955-.243.271-.167.479-.406.625-.719l1.486.45a3.017 3.017 0 0 1-1.199 1.418 3.281 3.281 0 0 1-1.78.506Zm-2.323-3.142v-1.137h4.64v1.137h-4.64Zm6.146 2.954v-1.261c.246.045.435.041.569-.013a.573.573 0 0 0 .299-.325c.067-.158.125-.368.175-.63.067-.371.125-.798.175-1.281.054-.483.1-.999.138-1.549.041-.549.079-1.111.112-1.686h4.965v6.745h-1.499v-5.334h-2.142a108.552 108.552 0 0 1-.169 1.924c-.033.342-.07.666-.112.974-.037.304-.077.565-.119.781-.095.487-.233.872-.412 1.156a1.17 1.17 0 0 1-.737.543c-.316.083-.731.069-1.243-.044Zm11.167.188c-.674 0-1.264-.152-1.767-.456a3.134 3.134 0 0 1-1.175-1.256c-.274-.537-.412-1.153-.412-1.848 0-.708.142-1.329.425-1.862a3.136 3.136 0 0 1 1.18-1.249c.504-.3 1.087-.449 1.749-.449.679 0 1.27.152 1.774.455.504.304.895.725 1.174 1.262.279.533.419 1.147.419 1.843 0 .699-.142 1.317-.425 1.855a3.136 3.136 0 0 1-1.174 1.255c-.504.3-1.093.45-1.768.45Zm0-1.412c.6 0 1.045-.2 1.337-.599.291-.4.437-.917.437-1.549 0-.654-.148-1.175-.444-1.562-.295-.391-.739-.587-1.33-.587-.404 0-.737.092-.999.275-.258.179-.45.431-.575.756-.125.32-.187.693-.187 1.118 0 .653.148 1.176.443 1.567.3.387.739.581 1.318.581Zm4.73 1.224v-6.745h3.067c.22 0 .427.012.618.037.192.025.356.057.494.094.324.096.612.283.861.562.25.275.375.656.375 1.143 0 .287-.046.525-.137.712a1.439 1.439 0 0 1-.581.612c-.075.042-.15.075-.225.1.162.025.317.073.462.144.229.112.421.279.575.499.158.221.237.531.237.931 0 .454-.11.837-.331 1.149-.216.308-.535.523-.955.644a3.499 3.499 0 0 1-.531.093c-.2.017-.404.025-.612.025h-3.317Zm1.524-1.161h1.686a1.913 1.913 0 0 0 .569-.094.557.557 0 0 0 .325-.287.94.94 0 0 0 .106-.431c0-.204-.052-.367-.156-.488a.718.718 0 0 0-.363-.249.825.825 0 0 0-.274-.057 2.96 2.96 0 0 0-.238-.012h-1.655v1.618Zm0-2.799h1.249a3.8 3.8 0 0 0 .375-.018c.125-.017.229-.044.312-.081a.541.541 0 0 0 .3-.275.922.922 0 0 0 .1-.431.9.9 0 0 0-.112-.45.539.539 0 0 0-.344-.275 1.124 1.124 0 0 0-.381-.068 10.092 10.092 0 0 0-.281-.007h-1.218v1.605Zm8.533 4.148c-.683 0-1.283-.148-1.799-.444a3.163 3.163 0 0 1-1.212-1.23c-.287-.525-.43-1.129-.43-1.811 0-.737.141-1.377.424-1.918a3.106 3.106 0 0 1 1.181-1.268c.504-.3 1.086-.449 1.748-.449.7 0 1.293.164 1.781.493.491.325.855.785 1.093 1.38.237.596.326 1.297.268 2.105h-1.493v-.55c-.004-.732-.133-1.267-.387-1.605-.254-.337-.654-.506-1.199-.506-.616 0-1.074.192-1.374.575-.3.379-.45.935-.45 1.668 0 .682.15 1.211.45 1.586.3.375.737.562 1.311.562.371 0 .69-.081.956-.243.271-.167.479-.406.625-.719l1.486.45a3.017 3.017 0 0 1-1.199 1.418 3.284 3.284 0 0 1-1.78.506Zm-2.323-3.142v-1.137h4.64v1.137h-4.64Zm6.758 2.954.013-6.745h1.524v3.248l2.467-3.248h1.88l-2.617 3.373 2.841 3.372h-1.992l-2.579-3.248v3.248h-1.537Zm-49.874 13v-6.745h3.067c.22 0 .427.012.618.037.192.025.356.057.493.094.325.096.613.283.862.562.25.275.375.656.375 1.143 0 .287-.046.525-.137.712a1.428 1.428 0 0 1-.806.712c.162.025.316.073.462.144.229.112.421.279.575.499.158.221.237.531.237.931 0 .454-.11.837-.331 1.149-.216.308-.535.523-.955.644a3.544 3.544 0 0 1-.531.093c-.2.017-.404.025-.612.025h-3.317Zm1.524-1.161h1.686a1.913 1.913 0 0 0 .569-.094.552.552 0 0 0 .324-.287.929.929 0 0 0 .107-.431c0-.204-.052-.367-.156-.488a.718.718 0 0 0-.363-.249.83.83 0 0 0-.275-.057 2.916 2.916 0 0 0-.237-.012h-1.655v1.618Zm0-2.799h1.249a3.8 3.8 0 0 0 .375-.018c.125-.017.229-.044.312-.081a.541.541 0 0 0 .3-.275.922.922 0 0 0 .1-.431.9.9 0 0 0-.113-.45.535.535 0 0 0-.343-.275 1.124 1.124 0 0 0-.381-.068 10.092 10.092 0 0 0-.281-.007h-1.218v1.605Zm7.954 3.96.013-6.745h1.524v3.248l2.467-3.248h1.88l-2.617 3.373 2.842 3.372h-1.993l-2.579-3.248v3.248h-1.537Zm9.592.188c-.675 0-1.264-.152-1.768-.456a3.132 3.132 0 0 1-1.174-1.256c-.275-.537-.412-1.153-.412-1.848 0-.708.141-1.329.424-1.862a3.131 3.131 0 0 1 1.181-1.249c.504-.3 1.087-.449 1.749-.449.678 0 1.27.152 1.773.455.504.304.896.725 1.175 1.262.278.533.418 1.147.418 1.843 0 .699-.142 1.317-.425 1.855a3.13 3.13 0 0 1-1.174 1.255c-.504.3-1.093.45-1.767.45Zm0-1.412c.599 0 1.045-.2 1.336-.599.292-.4.437-.917.437-1.549 0-.654-.147-1.175-.443-1.562-.296-.391-.739-.587-1.33-.587-.404 0-.737.092-1 .275a1.582 1.582 0 0 0-.574.756c-.125.32-.188.693-.188 1.118 0 .653.148 1.176.444 1.567.3.387.739.581 1.318.581Zm4.73 1.224v-6.745h1.236l2.417 4.659 2.424-4.659h1.23v6.745h-1.436v-3.716l-1.918 3.716h-.593l-1.918-3.716v3.716h-1.442Zm10.937.188c-.487 0-.899-.092-1.236-.275a1.944 1.944 0 0 1-.768-.743 2.066 2.066 0 0 1-.256-1.018c0-.325.054-.617.162-.875.108-.262.275-.487.5-.674.224-.192.516-.348.874-.469a8.46 8.46 0 0 1 .949-.237c.367-.071.762-.135 1.187-.194.429-.062.876-.129 1.343-.2l-.537.306c.004-.466-.1-.809-.313-1.03-.212-.221-.57-.331-1.074-.331-.304 0-.597.071-.881.212-.283.142-.48.385-.593.731l-1.374-.431a2.56 2.56 0 0 1 .949-1.374c.471-.346 1.104-.518 1.899-.518.6 0 1.126.097 1.58.293a1.96 1.96 0 0 1 1.018.962c.121.237.194.481.219.731.025.245.037.514.037.805v4.141h-1.317v-1.461l.218.237c-.304.487-.66.845-1.068 1.074-.404.225-.91.338-1.518.338Zm.3-1.2c.342 0 .633-.06.875-.181a1.69 1.69 0 0 0 .574-.443c.146-.175.244-.339.294-.494.079-.191.123-.41.131-.655.012-.25.019-.452.019-.606l.462.137c-.454.071-.843.133-1.168.188-.325.054-.604.106-.837.156a5.435 5.435 0 0 0-.618.156 1.913 1.913 0 0 0-.444.218.983.983 0 0 0-.281.288.752.752 0 0 0-.093.381c0 .166.041.314.124.443a.871.871 0 0 0 .363.3c.162.075.362.112.599.112Zm4.999 1.012v-6.745h1.505v2.661h3.029v-2.661h1.506v6.745h-1.506v-2.673h-3.029v2.673h-1.505Zm7.283 1.499v-2.679c.367 0 .627-.125.781-.375.154-.25.277-.683.369-1.299.058-.366.106-.754.143-1.162.038-.408.069-.839.094-1.293.029-.453.054-.932.075-1.436h5.021v5.565h.681v2.679h-1.424v-1.499h-4.322v1.499h-1.418Zm2.018-2.679h2.966v-4.385h-2.204a60.825 60.825 0 0 1-.1 1.543c-.021.258-.044.506-.069.743-.021.233-.046.45-.075.65-.046.35-.102.637-.169.862-.066.225-.183.42-.349.587Zm9.466 1.368c-.683 0-1.283-.148-1.799-.444a3.157 3.157 0 0 1-1.212-1.23c-.287-.525-.431-1.129-.431-1.811 0-.737.142-1.377.425-1.918a3.104 3.104 0 0 1 1.18-1.268c.504-.3 1.087-.449 1.749-.449.7 0 1.293.164 1.78.493.491.325.856.785 1.093 1.38.237.596.327 1.297.269 2.105h-1.493v-.55c-.004-.732-.133-1.267-.387-1.605-.254-.337-.654-.506-1.199-.506-.617 0-1.075.192-1.375.575-.299.379-.449.935-.449 1.668 0 .682.15 1.211.449 1.586.3.375.737.562 1.312.562.371 0 .689-.081.956-.243a1.63 1.63 0 0 0 .624-.719l1.487.45a3.017 3.017 0 0 1-1.199 1.418 3.286 3.286 0 0 1-1.78.506Zm-2.324-3.142v-1.137h4.641v1.137h-4.641Z" fill="#232323"/><path d="M411.5 363.806a58.704 58.704 0 0 0-41.503 17.191 58.713 58.713 0 0 0-17.191 41.503 58.704 58.704 0 0 0 17.191 41.503 58.713 58.713 0 0 0 41.503 17.191 58.704 58.704 0 0 0 41.503-17.191 58.713 58.713 0 0 0 17.191-41.503 58.704 58.704 0 0 0-17.191-41.503 58.713 58.713 0 0 0-41.503-17.191h0Z" stroke="#ED553B" stroke-width="2.387" stroke-linecap="round"/><g filter="url(#d)"><ellipse cx="116" cy="367.5" rx="85" ry="84.5" fill="#fff"/></g><g filter="url(#e)"><ellipse cx="116" cy="368.5" rx="72" ry="72.5" fill="#E9F6FA"/></g><path d="M95.056 368v-16.523l-3.9 2.398v-4.333l3.9-2.34h4.015V368h-4.015Zm15.573.376a7.307 7.307 0 0 1-2.975-.622 7.51 7.51 0 0 1-2.47-1.776 6.705 6.705 0 0 1-1.488-2.686l3.813-1.011c.202.76.597 1.352 1.184 1.776a3.332 3.332 0 0 0 1.936.621c.597 0 1.141-.144 1.632-.433a3.21 3.21 0 0 0 1.184-1.17 3.076 3.076 0 0 0 .448-1.632c0-.896-.308-1.661-.924-2.297-.607-.645-1.387-.967-2.34-.967-.289 0-.568.043-.838.13a3.454 3.454 0 0 0-.78.332l-1.762-3.091 6.615-5.488.289.837h-9.648v-3.697h12.999v3.697l-5.142 4.969-.029-1.098c1.194.183 2.2.602 3.019 1.257a6.168 6.168 0 0 1 1.877 2.397c.434.944.65 1.95.65 3.019 0 1.309-.332 2.489-.996 3.538a7.375 7.375 0 0 1-2.643 2.485c-1.098.606-2.302.91-3.611.91Zm18.251.057c-1.377 0-2.614-.322-3.712-.967a7.01 7.01 0 0 1-2.585-2.687c-.636-1.155-.954-2.489-.954-4.001v-6.037c0-1.637.318-3.047.954-4.232a6.593 6.593 0 0 1 2.686-2.744c1.155-.645 2.513-.968 4.073-.968a9.27 9.27 0 0 1 2.889.448c.914.299 1.752.804 2.513 1.517l-2.802 2.802a3.749 3.749 0 0 0-1.199-.809 3.54 3.54 0 0 0-1.401-.289c-.751 0-1.406.178-1.964.534a3.666 3.666 0 0 0-1.286 1.372 3.751 3.751 0 0 0-.447 1.791v3.091l-.665-.722a6.097 6.097 0 0 1 2.066-1.386 6.3 6.3 0 0 1 2.44-.491c1.31 0 2.461.293 3.452.881a6.18 6.18 0 0 1 2.34 2.412c.568 1.02.852 2.185.852 3.495 0 1.309-.332 2.494-.996 3.553a7.45 7.45 0 0 1-2.643 2.513c-1.098.616-2.302.924-3.611.924Zm0-3.755c.597 0 1.141-.144 1.632-.433a3.21 3.21 0 0 0 1.184-1.17 3.076 3.076 0 0 0 .448-1.632c0-.597-.144-1.141-.433-1.632a3.213 3.213 0 0 0-1.17-1.185 3.085 3.085 0 0 0-1.632-.447c-.597 0-1.146.149-1.647.447a3.32 3.32 0 0 0-1.184 1.185 3.157 3.157 0 0 0-.433 1.632c0 .578.144 1.112.433 1.603.289.491.679.886 1.17 1.184a3.076 3.076 0 0 0 1.632.448Z" fill="#ED553B"/><path d="M91.861 392v-9.099h1.523v4.221l3.633-4.221h1.87l-3.91 4.461L99.153 392H97.22l-3.836-4.246V392h-1.523Zm10.903.19c-.691 0-1.298-.15-1.82-.449a3.197 3.197 0 0 1-1.226-1.245c-.29-.531-.436-1.142-.436-1.832 0-.746.143-1.393.43-1.94.286-.552.684-.98 1.194-1.283.51-.303 1.099-.455 1.769-.455.708 0 1.308.166 1.801.499.497.329.866.794 1.106 1.397.24.602.331 1.312.272 2.129h-1.511v-.556c-.004-.741-.134-1.283-.391-1.624-.257-.341-.662-.512-1.214-.512-.623 0-1.086.194-1.39.582-.303.383-.455.945-.455 1.687 0 .691.152 1.226.455 1.605.304.379.746.568 1.327.568.375 0 .697-.082.967-.246.274-.168.484-.411.632-.727l1.504.455a3.051 3.051 0 0 1-1.213 1.435 3.323 3.323 0 0 1-1.801.512Zm-2.351-3.179v-1.15h4.695v1.15h-4.695Zm10.004-4.606c-.35 0-.67-.087-.961-.259a1.994 1.994 0 0 1-.695-.689 1.856 1.856 0 0 1-.259-.967h1.188a.717.717 0 0 0 .727.727c.202 0 .372-.07.512-.209a.706.706 0 0 0 .214-.518h1.188c0 .354-.086.676-.259.967a1.977 1.977 0 0 1-.695.689 1.853 1.853 0 0 1-.96.259Zm2.761.771V392h-1.46v-4.455L108.47 392h-1.219v-6.824h1.46v4.341l3.26-4.341h1.207Zm4.738 7.014c-.704 0-1.304-.156-1.801-.468a3.122 3.122 0 0 1-1.144-1.289c-.261-.544-.394-1.159-.398-1.845.004-.699.141-1.319.411-1.858a3.095 3.095 0 0 1 1.163-1.276c.501-.312 1.097-.468 1.788-.468.775 0 1.43.196 1.965.588.539.387.891.918 1.055 1.592l-1.516.411a1.65 1.65 0 0 0-.588-.853 1.509 1.509 0 0 0-.935-.31c-.396 0-.723.095-.98.284a1.626 1.626 0 0 0-.568.771 3.203 3.203 0 0 0-.183 1.119c0 .649.145 1.173.436 1.573.29.4.722.6 1.295.6.404 0 .722-.092.954-.278.236-.185.413-.452.531-.802l1.554.348c-.21.695-.579 1.23-1.106 1.605-.526.37-1.171.556-1.933.556Zm7.135 0c-.683 0-1.279-.154-1.789-.462a3.176 3.176 0 0 1-1.188-1.27c-.278-.543-.417-1.167-.417-1.87 0-.716.144-1.344.43-1.883a3.17 3.17 0 0 1 1.194-1.264c.51-.303 1.1-.455 1.77-.455.686 0 1.284.154 1.794.461.51.308.906.733 1.188 1.277.282.539.423 1.16.423 1.864 0 .708-.143 1.333-.429 1.877a3.176 3.176 0 0 1-1.188 1.27c-.51.303-1.106.455-1.788.455Zm0-1.429c.606 0 1.057-.202 1.352-.606.295-.405.442-.927.442-1.567 0-.662-.149-1.188-.449-1.58-.299-.396-.747-.594-1.345-.594-.409 0-.746.093-1.011.278a1.599 1.599 0 0 0-.582.765 3.11 3.11 0 0 0-.189 1.131c0 .661.149 1.19.448 1.586.304.392.748.587 1.334.587Zm4.785 1.239v-6.824h3.103c.223 0 .431.012.625.038.194.025.36.056.499.094.329.097.62.287.872.569.253.278.379.663.379 1.156 0 .291-.046.531-.139.721a1.419 1.419 0 0 1-.815.72 1.522 1.522 0 0 1 1.049.651c.16.223.24.537.24.941 0 .46-.111.847-.335 1.163-.219.312-.541.529-.966.651a3.45 3.45 0 0 1-.537.095 7.418 7.418 0 0 1-.62.025h-3.355Zm1.542-1.175h1.706c.088 0 .185-.009.291-.026.105-.016.2-.04.284-.069a.565.565 0 0 0 .329-.291.946.946 0 0 0 .107-.436c0-.206-.053-.37-.158-.493a.723.723 0 0 0-.367-.252.819.819 0 0 0-.278-.057 2.628 2.628 0 0 0-.24-.013h-1.674v1.637Zm0-2.831h1.264c.13 0 .257-.006.379-.019.126-.017.231-.044.316-.082a.548.548 0 0 0 .303-.278.943.943 0 0 0 .101-.436.91.91 0 0 0-.114-.455.538.538 0 0 0-.347-.278 1.128 1.128 0 0 0-.386-.07 13.938 13.938 0 0 0-.284-.006h-1.232v1.624Z" fill="#232323"/><path d="M116.5 308.806a58.705 58.705 0 0 0-41.503 17.191 58.706 58.706 0 0 0-17.19 41.503 58.693 58.693 0 1 0 58.693-58.694h0Z" stroke="#ED553B" stroke-width="2.387" stroke-linecap="round"/><defs><filter id="a" x="439.552" y=".552" width="300.896" height="300.896" filterUnits="userSpaceOnUse" color-interpolation-filters="sRGB"><feFlood flood-opacity="0" result="BackgroundImageFix"/><feColorMatrix in="SourceAlpha" values="0 0 0 0 0 0 0 0 0 0 0 0 0 0 0 0 0 0 127 0" result="hardAlpha"/><feOffset/><feGaussianBlur stdDeviation="15.224"/><feComposite in2="hardAlpha" operator="out"/><feColorMatrix values="0 0 0 0 0 0 0 0 0 0 0 0 0 0 0 0 0 0 0.01 0"/><feBlend in2="BackgroundImageFix" result="effect1_dropShadow_399_30353"/><feBlend in="SourceGraphic" in2="effect1_dropShadow_399_30353" result="shape"/></filter><filter id="b" x="295.552" y="307.552" width="230.896" height="229.896" filterUnits="userSpaceOnUse" color-interpolation-filters="sRGB"><feFlood flood-opacity="0" result="BackgroundImageFix"/><feColorMatrix in="SourceAlpha" values="0 0 0 0 0 0 0 0 0 0 0 0 0 0 0 0 0 0 127 0" result="hardAlpha"/><feOffset/><feGaussianBlur stdDeviation="15.224"/><feComposite in2="hardAlpha" operator="out"/><feColorMatrix values="0 0 0 0 0 0 0 0 0 0 0 0 0 0 0 0 0 0 0.01 0"/><feBlend in2="BackgroundImageFix" result="effect1_dropShadow_399_30353"/><feBlend in="SourceGraphic" in2="effect1_dropShadow_399_30353" result="shape"/></filter><filter id="c" x="315.724" y="327.724" width="190.552" height="191.552" filterUnits="userSpaceOnUse" color-interpolation-filters="sRGB"><feFlood flood-opacity="0" result="BackgroundImageFix"/><feColorMatrix in="SourceAlpha" values="0 0 0 0 0 0 0 0 0 0 0 0 0 0 0 0 0 0 127 0" result="hardAlpha"/><feOffset/><feGaussianBlur stdDeviation="11.638"/><feComposite in2="hardAlpha" operator="out"/><feColorMatrix values="0 0 0 0 0 0 0 0 0 0 0 0 0 0 0 0 0 0 0.01 0"/><feBlend in2="BackgroundImageFix" result="effect1_dropShadow_399_30353"/><feBlend in="SourceGraphic" in2="effect1_dropShadow_399_30353" result="shape"/></filter><filter id="d" x=".552" y="252.552" width="230.896" height="229.896" filterUnits="userSpaceOnUse" color-interpolation-filters="sRGB"><feFlood flood-opacity="0" result="BackgroundImageFix"/><feColorMatrix in="SourceAlpha" values="0 0 0 0 0 0 0 0 0 0 0 0 0 0 0 0 0 0 127 0" result="hardAlpha"/><feOffset/><feGaussianBlur stdDeviation="15.224"/><feComposite in2="hardAlpha" operator="out"/><feColorMatrix values="0 0 0 0 0 0 0 0 0 0 0 0 0 0 0 0 0 0 0.01 0"/><feBlend in2="BackgroundImageFix" result="effect1_dropShadow_399_30353"/><feBlend in="SourceGraphic" in2="effect1_dropShadow_399_30353" result="shape"/></filter><filter id="e" x="20.724" y="272.724" width="190.552" height="191.552" filterUnits="userSpaceOnUse" color-interpolation-filters="sRGB"><feFlood flood-opacity="0" result="BackgroundImageFix"/><feColorMatrix in="SourceAlpha" values="0 0 0 0 0 0 0 0 0 0 0 0 0 0 0 0 0 0 127 0" result="hardAlpha"/><feOffset/><feGaussianBlur stdDeviation="11.638"/><feComposite in2="hardAlpha" operator="out"/><feColorMatrix values="0 0 0 0 0 0 0 0 0 0 0 0 0 0 0 0 0 0 0.01 0"/><feBlend in2="BackgroundImageFix" result="effect1_dropShadow_399_30353"/><feBlend in="SourceGraphic" in2="effect1_dropShadow_399_30353" result="shape"/></filter></defs></svg>