<svg width="320" height="394" viewBox="0 0 320 394" fill="none" xmlns="http://www.w3.org/2000/svg"><path d="m92 94 139.5 99-145 103" stroke="#25A4C4" stroke-width="2" stroke-dasharray="5 5"/><g filter="url(#a)"><circle cx="230" cy="191" r="74" fill="#fff"/></g><g filter="url(#b)"><ellipse cx="229.682" cy="191.491" rx="62.682" ry="63.491" fill="#E9F6FA"/></g><path d="M215.004 188v-13.728l-3.24 1.992v-3.6l3.24-1.944h3.336V188h-3.336Zm12.939.312a6.086 6.086 0 0 1-2.472-.516 6.254 6.254 0 0 1-2.052-1.476 5.56 5.56 0 0 1-1.236-2.232l3.168-.84c.168.632.496 1.124.984 1.476a2.766 2.766 0 0 0 1.608.516c.496 0 .948-.12 1.356-.36.416-.24.744-.564.984-.972a2.56 2.56 0 0 0 .372-1.356c0-.744-.256-1.38-.768-1.908-.504-.536-1.152-.804-1.944-.804-.24 0-.472.036-.696.108-.224.064-.44.156-.648.276l-1.464-2.568 5.496-4.56.24.696h-8.016v-3.072h10.8v3.072l-4.272 4.128-.024-.912c.992.152 1.828.5 2.508 1.044a5.131 5.131 0 0 1 1.56 1.992c.36.784.54 1.62.54 2.508 0 1.088-.276 2.068-.828 2.94a6.113 6.113 0 0 1-2.196 2.064 6.1 6.1 0 0 1-3 .756Zm15.163.048c-1.144 0-2.172-.268-3.084-.804a5.822 5.822 0 0 1-2.148-2.232c-.528-.96-.792-2.068-.792-3.324v-5.016c0-1.36.264-2.532.792-3.516a5.477 5.477 0 0 1 2.232-2.28c.96-.536 2.088-.804 3.384-.804.84 0 1.64.124 2.4.372s1.456.668 2.088 1.26l-2.328 2.328a3.127 3.127 0 0 0-.996-.672 2.945 2.945 0 0 0-1.164-.24c-.624 0-1.168.148-1.632.444a3.044 3.044 0 0 0-1.068 1.14 3.11 3.11 0 0 0-.372 1.488v2.568l-.552-.6a5.067 5.067 0 0 1 1.716-1.152 5.247 5.247 0 0 1 2.028-.408c1.088 0 2.044.244 2.868.732a5.144 5.144 0 0 1 1.944 2.004c.472.848.708 1.816.708 2.904 0 1.088-.276 2.072-.828 2.952a6.177 6.177 0 0 1-2.196 2.088 6.024 6.024 0 0 1-3 .768Zm0-3.12c.496 0 .948-.12 1.356-.36.416-.24.744-.564.984-.972a2.56 2.56 0 0 0 .372-1.356c0-.496-.12-.948-.36-1.356a2.668 2.668 0 0 0-.972-.984 2.56 2.56 0 0 0-1.356-.372c-.496 0-.952.124-1.368.372-.408.24-.736.568-.984.984-.24.408-.36.86-.36 1.356 0 .48.12.924.36 1.332.24.408.564.736.972.984.408.248.86.372 1.356.372Z" fill="#ED553B"/><path d="M209.781 208v-8.64h1.446v4.008l3.45-4.008h1.776l-3.714 4.236 3.966 4.404h-1.836l-3.642-4.032V208h-1.446Zm10.353.18c-.656 0-1.232-.142-1.728-.426a3.034 3.034 0 0 1-1.164-1.182c-.276-.504-.414-1.084-.414-1.74 0-.708.136-1.322.408-1.842a2.98 2.98 0 0 1 1.134-1.218c.484-.288 1.044-.432 1.68-.432.672 0 1.242.158 1.71.474.472.312.822.754 1.05 1.326.228.572.314 1.246.258 2.022h-1.434v-.528c-.004-.704-.128-1.218-.372-1.542-.244-.324-.628-.486-1.152-.486-.592 0-1.032.184-1.32.552-.288.364-.432.898-.432 1.602 0 .656.144 1.164.432 1.524.288.36.708.54 1.26.54.356 0 .662-.078.918-.234.26-.16.46-.39.6-.69l1.428.432a2.894 2.894 0 0 1-1.152 1.362 3.151 3.151 0 0 1-1.71.486Zm-2.232-3.018v-1.092h4.458v1.092h-4.458Zm9.498-4.374c-.332 0-.636-.082-.912-.246a1.88 1.88 0 0 1-.66-.654 1.763 1.763 0 0 1-.246-.918h1.128a.68.68 0 0 0 .198.492.68.68 0 0 0 .492.198.66.66 0 0 0 .486-.198.67.67 0 0 0 .204-.492h1.128c0 .336-.082.642-.246.918a1.88 1.88 0 0 1-.66.654c-.276.164-.58.246-.912.246Zm2.622.732V208h-1.386v-4.23l-3.084 4.23h-1.158v-6.48h1.386v4.122l3.096-4.122h1.146Zm4.499 6.66c-.668 0-1.238-.148-1.71-.444a2.956 2.956 0 0 1-1.086-1.224c-.248-.516-.374-1.1-.378-1.752.004-.664.134-1.252.39-1.764.26-.516.628-.92 1.104-1.212.476-.296 1.042-.444 1.698-.444.736 0 1.358.186 1.866.558.512.368.846.872 1.002 1.512l-1.44.39a1.57 1.57 0 0 0-.558-.81 1.437 1.437 0 0 0-.888-.294c-.376 0-.686.09-.93.27-.244.176-.424.42-.54.732a3.033 3.033 0 0 0-.174 1.062c0 .616.138 1.114.414 1.494.276.38.686.57 1.23.57.384 0 .686-.088.906-.264.224-.176.392-.43.504-.762l1.476.33c-.2.66-.55 1.168-1.05 1.524-.5.352-1.112.528-1.836.528Zm6.775 0c-.648 0-1.214-.146-1.698-.438a3.008 3.008 0 0 1-1.128-1.206c-.264-.516-.396-1.108-.396-1.776 0-.68.136-1.276.408-1.788.272-.512.65-.912 1.134-1.2.484-.288 1.044-.432 1.68-.432.652 0 1.22.146 1.704.438.484.292.86.696 1.128 1.212.268.512.402 1.102.402 1.77 0 .672-.136 1.266-.408 1.782a3.008 3.008 0 0 1-1.128 1.206c-.484.288-1.05.432-1.698.432Zm0-1.356c.576 0 1.004-.192 1.284-.576.28-.384.42-.88.42-1.488 0-.628-.142-1.128-.426-1.5-.284-.376-.71-.564-1.278-.564-.388 0-.708.088-.96.264a1.52 1.52 0 0 0-.552.726c-.12.308-.18.666-.18 1.074 0 .628.142 1.13.426 1.506.288.372.71.558 1.266.558ZM245.84 208v-6.48h2.946c.212 0 .41.012.594.036.184.024.342.054.474.09.312.092.588.272.828.54.24.264.36.63.36 1.098 0 .276-.044.504-.132.684a1.364 1.364 0 0 1-.774.684 1.442 1.442 0 0 1 .996.618c.152.212.228.51.228.894 0 .436-.106.804-.318 1.104-.208.296-.514.502-.918.618-.148.04-.318.07-.51.09a7.079 7.079 0 0 1-.588.024h-3.186Zm1.464-1.116h1.62a1.757 1.757 0 0 0 .546-.09.533.533 0 0 0 .312-.276.892.892 0 0 0 .102-.414c0-.196-.05-.352-.15-.468a.689.689 0 0 0-.348-.24.795.795 0 0 0-.264-.054 2.725 2.725 0 0 0-.228-.012h-1.59v1.554Zm0-2.688h1.2c.124 0 .244-.006.36-.018.12-.016.22-.042.3-.078a.52.52 0 0 0 .288-.264.89.89 0 0 0 .096-.414.866.866 0 0 0-.108-.432.514.514 0 0 0-.33-.264c-.1-.04-.222-.062-.366-.066l-.27-.006h-1.17v1.542Z" fill="#232323"/><path d="M230.434 139.962a50.833 50.833 0 0 0-19.557 3.913 51.081 51.081 0 0 0-16.577 11.142 51.403 51.403 0 0 0-11.075 16.673 51.645 51.645 0 0 0-3.889 19.666 51.645 51.645 0 0 0 3.889 19.666 51.403 51.403 0 0 0 11.075 16.673 51.081 51.081 0 0 0 16.577 11.142 50.852 50.852 0 0 0 19.557 3.913c6.711 0 13.356-1.33 19.556-3.913a51.075 51.075 0 0 0 16.578-11.142 51.419 51.419 0 0 0 11.075-16.673 51.664 51.664 0 0 0 0-39.332 51.419 51.419 0 0 0-11.075-16.673 51.075 51.075 0 0 0-16.578-11.142 50.828 50.828 0 0 0-19.556-3.913h0Z" stroke="#ED553B" stroke-width="2.078" stroke-linecap="round"/><g filter="url(#c)"><circle cx="90" cy="93" r="74" fill="#fff"/></g><circle cx="90.275" cy="93.308" r="58.275" fill="#E9F6FA"/><path d="M74.32 90.36c-.872 0-1.692-.18-2.46-.54a5.917 5.917 0 0 1-1.968-1.5 5.78 5.78 0 0 1-1.188-2.232l3.144-.84c.104.408.288.76.552 1.056.272.296.584.528.936.696.36.16.728.24 1.104.24.496 0 .948-.12 1.356-.36.416-.24.744-.564.984-.972a2.56 2.56 0 0 0 .372-1.356 2.56 2.56 0 0 0-.372-1.356 2.668 2.668 0 0 0-.984-.972c-.408-.24-.86-.36-1.356-.36-.608 0-1.104.104-1.488.312-.384.2-.672.392-.864.576l-2.76-.84.528-9.192h9.432v3.048h-7.632l1.152-1.08-.36 5.928-.552-.672a4.13 4.13 0 0 1 1.476-.768 5.577 5.577 0 0 1 1.548-.24c1.088 0 2.044.244 2.868.732a5.06 5.06 0 0 1 1.944 1.992c.472.84.708 1.804.708 2.892 0 1.088-.284 2.072-.852 2.952a6.321 6.321 0 0 1-2.244 2.088 6.158 6.158 0 0 1-3.024.768Zm15.405 0c-1.28 0-2.4-.268-3.36-.804a5.711 5.711 0 0 1-2.244-2.244c-.536-.96-.804-2.08-.804-3.36v-5.184c0-1.28.268-2.4.804-3.36a5.711 5.711 0 0 1 2.244-2.244c.96-.536 2.08-.804 3.36-.804 1.28 0 2.4.268 3.36.804a5.711 5.711 0 0 1 2.244 2.244c.536.96.804 2.08.804 3.36v5.184c0 1.28-.268 2.4-.804 3.36a5.711 5.711 0 0 1-2.244 2.244c-.96.536-2.08.804-3.36.804Zm0-3.096a3.027 3.027 0 0 0 2.664-1.512c.272-.464.408-.984.408-1.56v-5.688a3.027 3.027 0 0 0-1.512-2.664 3.027 3.027 0 0 0-1.56-.408 3.027 3.027 0 0 0-2.664 1.512 3.027 3.027 0 0 0-.408 1.56v5.688a3.027 3.027 0 0 0 1.512 2.664c.464.272.984.408 1.56.408Zm13.676-.504v-4.152h-4.152v-2.52h4.152V75.96h2.52v4.128h4.128v2.52h-4.128v4.152h-2.52Z" fill="#ED553B"/><path d="M61.881 110v-8.64h1.446v4.008l3.45-4.008h1.776l-3.714 4.236L68.805 110h-1.836l-3.642-4.032V110h-1.446Zm6.69 0v-1.212c.235.044.417.04.545-.012a.556.556 0 0 0 .288-.312c.064-.152.12-.354.168-.606.064-.356.12-.766.168-1.23.052-.464.096-.96.132-1.488.04-.528.076-1.068.108-1.62h4.77V110h-1.44v-5.124h-2.058a94.027 94.027 0 0 1-.162 1.848 25.464 25.464 0 0 1-.222 1.686c-.092.468-.224.838-.396 1.11a1.126 1.126 0 0 1-.708.522c-.304.08-.702.066-1.194-.042Zm13.48-6.48V110h-1.385v-4.23L77.582 110h-1.158v-6.48h1.386v4.122l3.096-4.122h1.146Zm4.632 6.66c-.657 0-1.233-.142-1.729-.426a3.034 3.034 0 0 1-1.163-1.182c-.276-.504-.415-1.084-.415-1.74 0-.708.136-1.322.408-1.842a2.98 2.98 0 0 1 1.134-1.218c.484-.288 1.044-.432 1.68-.432.672 0 1.243.158 1.71.474.472.312.822.754 1.05 1.326.228.572.314 1.246.258 2.022h-1.433v-.528c-.005-.704-.129-1.218-.373-1.542-.243-.324-.627-.486-1.151-.486-.593 0-1.033.184-1.32.552-.288.364-.433.898-.433 1.602 0 .656.144 1.164.432 1.524.288.36.709.54 1.26.54.356 0 .662-.078.918-.234.26-.16.46-.39.6-.69l1.428.432a2.894 2.894 0 0 1-1.151 1.362 3.151 3.151 0 0 1-1.71.486Zm-2.233-3.018v-1.092h4.459v1.092H84.45ZM90.944 110v-6.48h1.446v2.556h2.91v-2.556h1.446V110H95.3v-2.568h-2.91V110h-1.446Zm9.103 0v-5.196H97.88v-1.284h5.778v1.284h-2.166V110h-1.446Zm7.494.18c-.648 0-1.214-.146-1.698-.438a3.008 3.008 0 0 1-1.128-1.206c-.264-.516-.396-1.108-.396-1.776 0-.68.136-1.276.408-1.788.272-.512.65-.912 1.134-1.2.484-.288 1.044-.432 1.68-.432.652 0 1.22.146 1.704.438.484.292.86.696 1.128 1.212.268.512.402 1.102.402 1.77 0 .672-.136 1.266-.408 1.782a3.008 3.008 0 0 1-1.128 1.206c-.484.288-1.05.432-1.698.432Zm0-1.356c.576 0 1.004-.192 1.284-.576.28-.384.42-.88.42-1.488 0-.628-.142-1.128-.426-1.5-.284-.376-.71-.564-1.278-.564-.388 0-.708.088-.96.264a1.52 1.52 0 0 0-.552.726c-.12.308-.18.666-.18 1.074 0 .628.142 1.13.426 1.506.288.372.71.558 1.266.558Zm4.544 1.176v-6.48h2.946c.212 0 .41.012.594.036.184.024.342.054.474.09.312.092.588.272.828.54.24.264.36.63.36 1.098 0 .276-.044.504-.132.684a1.364 1.364 0 0 1-.774.684 1.442 1.442 0 0 1 .996.618c.152.212.228.51.228.894 0 .436-.106.804-.318 1.104-.208.296-.514.502-.918.618-.148.04-.318.07-.51.09a7.079 7.079 0 0 1-.588.024h-3.186Zm1.464-1.116h1.62a1.757 1.757 0 0 0 .546-.09.533.533 0 0 0 .312-.276.892.892 0 0 0 .102-.414c0-.196-.05-.352-.15-.468a.689.689 0 0 0-.348-.24.795.795 0 0 0-.264-.054 2.725 2.725 0 0 0-.228-.012h-1.59v1.554Zm0-2.688h1.2c.124 0 .244-.006.36-.018.12-.016.22-.042.3-.078a.52.52 0 0 0 .288-.264.89.89 0 0 0 .096-.414.866.866 0 0 0-.108-.432.514.514 0 0 0-.33-.264c-.1-.04-.222-.062-.366-.066l-.27-.006h-1.17v1.542Z" fill="#232323"/><path d="M90 45.787a47.212 47.212 0 1 0 0 94.425 47.212 47.212 0 0 0 0-94.425h0Z" stroke="#ED553B" stroke-width="1.926" stroke-linecap="round"/><g filter="url(#d)"><circle cx="90" cy="293" r="74" fill="#fff"/></g><g filter="url(#e)"><ellipse cx="89.682" cy="293.876" rx="62.682" ry="63.491" fill="#E9F6FA"/></g><path d="M82.927 283.312a6.086 6.086 0 0 1-2.472-.516 6.254 6.254 0 0 1-2.052-1.476 5.56 5.56 0 0 1-1.236-2.232l3.168-.84c.168.632.496 1.124.984 1.476a2.766 2.766 0 0 0 1.608.516c.496 0 .948-.12 1.356-.36.416-.24.744-.564.984-.972a2.56 2.56 0 0 0 .372-1.356c0-.744-.256-1.38-.768-1.908-.504-.536-1.152-.804-1.944-.804-.24 0-.472.036-.696.108-.224.064-.44.156-.648.276l-1.464-2.568 5.496-4.56.24.696h-8.016v-3.072h10.8v3.072l-4.272 4.128-.024-.912c.992.152 1.828.5 2.508 1.044a5.131 5.131 0 0 1 1.56 1.992c.36.784.54 1.62.54 2.508 0 1.088-.276 2.068-.828 2.94a6.113 6.113 0 0 1-2.196 2.064 6.1 6.1 0 0 1-3 .756ZM92.931 283l5.808-14.208h-7.392v-3.072h10.896v3.072L96.459 283H92.93Z" fill="#ED553B"/><path d="M69.247 302.68v-3.84l.234.372c-.236.196-.556.35-.96.462a4.977 4.977 0 0 1-1.29.162c-.728 0-1.308-.142-1.74-.426a2.397 2.397 0 0 1-.936-1.176c-.192-.5-.288-1.078-.288-1.734v-2.46h1.464v2.016c0 .296.016.588.048.876.036.284.112.542.228.774.12.232.302.418.546.558.244.136.574.204.99.204.464 0 .86-.078 1.188-.234.328-.156.56-.322.696-.498l-.18.726v-4.422h1.452v8.64h-1.452Zm6.075.18c-.656 0-1.232-.142-1.728-.426a3.034 3.034 0 0 1-1.164-1.182c-.276-.504-.414-1.084-.414-1.74 0-.708.136-1.322.408-1.842a2.98 2.98 0 0 1 1.134-1.218c.484-.288 1.044-.432 1.68-.432.672 0 1.242.158 1.71.474.472.312.822.754 1.05 1.326.228.572.314 1.246.258 2.022h-1.434v-.528c-.004-.704-.128-1.218-.372-1.542-.244-.324-.628-.486-1.152-.486-.592 0-1.032.184-1.32.552-.288.364-.432.898-.432 1.602 0 .656.144 1.164.432 1.524.288.36.708.54 1.26.54.356 0 .662-.078.918-.234.26-.16.46-.39.6-.69l1.428.432a2.894 2.894 0 0 1-1.152 1.362 3.151 3.151 0 0 1-1.71.486Zm-2.232-3.018v-1.092h4.458v1.092H73.09Zm5.905 2.838v-1.212c.236.044.418.04.546-.012a.556.556 0 0 0 .288-.312c.064-.152.12-.354.168-.606.064-.356.12-.766.168-1.23.052-.464.096-.96.132-1.488.04-.528.076-1.068.108-1.62h4.77v6.48h-1.44v-5.124h-2.058a94.027 94.027 0 0 1-.162 1.848 25.464 25.464 0 0 1-.222 1.686c-.092.468-.224.838-.396 1.11a1.126 1.126 0 0 1-.708.522c-.304.08-.702.066-1.194-.042Zm10.728.18c-.648 0-1.214-.146-1.698-.438a3.008 3.008 0 0 1-1.128-1.206c-.264-.516-.396-1.108-.396-1.776 0-.68.136-1.276.408-1.788.272-.512.65-.912 1.134-1.2.484-.288 1.044-.432 1.68-.432.652 0 1.22.146 1.704.438.484.292.86.696 1.128 1.212.268.512.402 1.102.402 1.77 0 .672-.136 1.266-.408 1.782a3.008 3.008 0 0 1-1.128 1.206c-.484.288-1.05.432-1.698.432Zm0-1.356c.576 0 1.004-.192 1.284-.576.28-.384.42-.88.42-1.488 0-.628-.142-1.128-.426-1.5-.284-.376-.71-.564-1.278-.564-.388 0-.708.088-.96.264a1.52 1.52 0 0 0-.552.726c-.12.308-.18.666-.18 1.074 0 .628.142 1.13.426 1.506.288.372.71.558 1.266.558Zm4.544 1.176v-6.48h2.946c.212 0 .41.012.594.036.184.024.342.054.474.09.312.092.588.272.828.54.24.264.36.63.36 1.098 0 .276-.044.504-.132.684a1.364 1.364 0 0 1-.774.684 1.442 1.442 0 0 1 .996.618c.152.212.228.51.228.894 0 .436-.106.804-.318 1.104-.208.296-.514.502-.918.618-.148.04-.318.07-.51.09a7.079 7.079 0 0 1-.588.024h-3.186Zm1.464-1.116h1.62a1.757 1.757 0 0 0 .546-.09.533.533 0 0 0 .312-.276.892.892 0 0 0 .102-.414c0-.196-.05-.352-.15-.468a.689.689 0 0 0-.348-.24.795.795 0 0 0-.264-.054 2.725 2.725 0 0 0-.228-.012h-1.59v1.554Zm0-2.688h1.2c.124 0 .244-.006.36-.018.12-.016.22-.042.3-.078a.52.52 0 0 0 .288-.264.89.89 0 0 0 .096-.414.866.866 0 0 0-.108-.432.514.514 0 0 0-.33-.264c-.1-.04-.222-.062-.366-.066l-.27-.006h-1.17v1.542Zm8.197 3.984c-.656 0-1.232-.142-1.728-.426a3.034 3.034 0 0 1-1.164-1.182c-.276-.504-.414-1.084-.414-1.74 0-.708.136-1.322.408-1.842a2.98 2.98 0 0 1 1.134-1.218c.484-.288 1.044-.432 1.68-.432.672 0 1.242.158 1.71.474.472.312.822.754 1.05 1.326.228.572.314 1.246.258 2.022h-1.434v-.528c-.004-.704-.128-1.218-.372-1.542-.244-.324-.628-.486-1.152-.486-.592 0-1.032.184-1.32.552-.288.364-.432.898-.432 1.602 0 .656.144 1.164.432 1.524.288.36.708.54 1.26.54.356 0 .662-.078.918-.234.26-.16.46-.39.6-.69l1.428.432a2.894 2.894 0 0 1-1.152 1.362 3.151 3.151 0 0 1-1.71.486Zm-2.232-3.018v-1.092h4.458v1.092h-4.458Zm6.493 2.838.012-6.48h1.464v3.12l2.37-3.12h1.806l-2.514 3.24 2.73 3.24h-1.914l-2.478-3.12v3.12h-1.476Zm-47.912 14v-6.48h2.945c.212 0 .41.012.594.036.184.024.343.054.474.09.313.092.588.272.828.54.24.264.36.63.36 1.098 0 .276-.043.504-.131.684a1.364 1.364 0 0 1-.774.684 1.442 1.442 0 0 1 .996.618c.151.212.227.51.227.894 0 .436-.106.804-.318 1.104-.207.296-.513.502-.917.618-.149.04-.319.07-.51.09a7.079 7.079 0 0 1-.589.024h-3.186Zm1.463-1.116h1.62a1.757 1.757 0 0 0 .547-.09.533.533 0 0 0 .312-.276.892.892 0 0 0 .102-.414c0-.196-.05-.352-.15-.468a.689.689 0 0 0-.349-.24.795.795 0 0 0-.264-.054 2.725 2.725 0 0 0-.227-.012h-1.59v1.554Zm0-2.688h1.2c.125 0 .245-.006.36-.018.12-.016.22-.042.3-.078a.52.52 0 0 0 .288-.264.89.89 0 0 0 .096-.414.866.866 0 0 0-.108-.432.514.514 0 0 0-.33-.264c-.1-.04-.221-.062-.365-.066l-.27-.006h-1.17v1.542Zm7.642 3.804.012-6.48h1.464v3.12l2.37-3.12h1.806l-2.514 3.24 2.73 3.24h-1.914l-2.478-3.12v3.12h-1.476Zm9.214.18c-.648 0-1.214-.146-1.698-.438a3.008 3.008 0 0 1-1.128-1.206c-.264-.516-.396-1.108-.396-1.776 0-.68.136-1.276.408-1.788.272-.512.65-.912 1.134-1.2.484-.288 1.044-.432 1.68-.432.652 0 1.22.146 1.704.438.484.292.86.696 1.128 1.212.268.512.402 1.102.402 1.77 0 .672-.136 1.266-.408 1.782a3.008 3.008 0 0 1-1.128 1.206c-.484.288-1.05.432-1.698.432Zm0-1.356c.576 0 1.004-.192 1.284-.576.28-.384.42-.88.42-1.488 0-.628-.142-1.128-.426-1.5-.284-.376-.71-.564-1.278-.564-.388 0-.708.088-.96.264a1.52 1.52 0 0 0-.552.726c-.12.308-.18.666-.18 1.074 0 .628.142 1.13.426 1.506.288.372.71.558 1.266.558Zm4.544 1.176v-6.48h1.188l2.322 4.476 2.328-4.476h1.182v6.48h-1.38v-3.57l-1.842 3.57h-.57l-1.842-3.57v3.57H83.14Zm10.507.18c-.468 0-.864-.088-1.188-.264a1.867 1.867 0 0 1-.738-.714 1.984 1.984 0 0 1-.246-.978c0-.312.052-.592.156-.84.104-.252.264-.468.48-.648.216-.184.496-.334.84-.45.26-.084.564-.16.912-.228.352-.068.732-.13 1.14-.186.412-.06.842-.124 1.29-.192l-.516.294c.004-.448-.096-.778-.3-.99-.204-.212-.548-.318-1.032-.318a1.87 1.87 0 0 0-.846.204c-.272.136-.462.37-.57.702l-1.32-.414c.16-.548.464-.988.912-1.32.452-.332 1.06-.498 1.824-.498.576 0 1.082.094 1.518.282.44.188.766.496.978.924.116.228.186.462.21.702.024.236.036.494.036.774v3.978h-1.266v-1.404l.21.228c-.292.468-.634.812-1.026 1.032-.388.216-.874.324-1.458.324Zm.288-1.152c.328 0 .608-.058.84-.174.232-.116.416-.258.552-.426.14-.168.234-.326.282-.474a1.8 1.8 0 0 0 .126-.63c.012-.24.018-.434.018-.582l.444.132c-.436.068-.81.128-1.122.18-.312.052-.58.102-.804.15a5.122 5.122 0 0 0-.594.15c-.168.06-.31.13-.426.21a.93.93 0 0 0-.27.276.72.72 0 0 0-.09.366c0 .16.04.302.12.426.08.12.196.216.348.288.156.072.348.108.576.108Zm4.802.972v-6.48h1.446v2.556h2.91V310.2h1.446v6.48h-1.446v-2.568h-2.91v2.568h-1.446Zm6.997 1.44v-2.574c.352 0 .602-.12.75-.36.148-.24.266-.656.354-1.248.056-.352.102-.724.138-1.116a34.1 34.1 0 0 0 .09-1.242c.028-.436.052-.896.072-1.38h4.824v5.346h.654v2.574h-1.368v-1.44h-4.152v1.44h-1.362Zm1.938-2.574h2.85v-4.212h-2.118a54.99 54.99 0 0 1-.096 1.482c-.02.248-.042.486-.066.714-.02.224-.044.432-.072.624a5.512 5.512 0 0 1-.162.828 1.314 1.314 0 0 1-.336.564Zm9.094 1.314c-.656 0-1.232-.142-1.728-.426a3.034 3.034 0 0 1-1.164-1.182c-.276-.504-.414-1.084-.414-1.74 0-.708.136-1.322.408-1.842a2.98 2.98 0 0 1 1.134-1.218c.484-.288 1.044-.432 1.68-.432.672 0 1.242.158 1.71.474.472.312.822.754 1.05 1.326.228.572.314 1.246.258 2.022h-1.434v-.528c-.004-.704-.128-1.218-.372-1.542-.244-.324-.628-.486-1.152-.486-.592 0-1.032.184-1.32.552-.288.364-.432.898-.432 1.602 0 .656.144 1.164.432 1.524.288.36.708.54 1.26.54.356 0 .662-.078.918-.234.26-.16.46-.39.6-.69l1.428.432a2.894 2.894 0 0 1-1.152 1.362 3.151 3.151 0 0 1-1.71.486Zm-2.232-3.018v-1.092h4.458v1.092h-4.458Z" fill="#232323"/><path d="M90.434 241.962a50.83 50.83 0 0 0-19.556 3.913A51.069 51.069 0 0 0 54.3 257.017a51.417 51.417 0 0 0-11.075 16.673 51.656 51.656 0 0 0 0 39.332A51.417 51.417 0 0 0 54.3 329.695a51.069 51.069 0 0 0 16.578 11.142 50.848 50.848 0 0 0 19.556 3.913c6.711 0 13.356-1.33 19.556-3.913a51.075 51.075 0 0 0 16.578-11.142 51.419 51.419 0 0 0 11.075-16.673 51.664 51.664 0 0 0 0-39.332 51.419 51.419 0 0 0-11.075-16.673 51.075 51.075 0 0 0-16.578-11.142 50.829 50.829 0 0 0-19.556-3.913h0Z" stroke="#ED553B" stroke-width="2.078" stroke-linecap="round"/><defs><filter id="a" x="129.493" y="90.493" width="201.015" height="201.015" filterUnits="userSpaceOnUse" color-interpolation-filters="sRGB"><feFlood flood-opacity="0" result="BackgroundImageFix"/><feColorMatrix in="SourceAlpha" values="0 0 0 0 0 0 0 0 0 0 0 0 0 0 0 0 0 0 127 0" result="hardAlpha"/><feOffset/><feGaussianBlur stdDeviation="13.254"/><feComposite in2="hardAlpha" operator="out"/><feColorMatrix values="0 0 0 0 0 0 0 0 0 0 0 0 0 0 0 0 0 0 0.01 0"/><feBlend in2="BackgroundImageFix" result="effect1_dropShadow_399_38971"/><feBlend in="SourceGraphic" in2="effect1_dropShadow_399_38971" result="shape"/></filter><filter id="b" x="146.736" y="107.736" width="165.891" height="167.51" filterUnits="userSpaceOnUse" color-interpolation-filters="sRGB"><feFlood flood-opacity="0" result="BackgroundImageFix"/><feColorMatrix in="SourceAlpha" values="0 0 0 0 0 0 0 0 0 0 0 0 0 0 0 0 0 0 127 0" result="hardAlpha"/><feOffset/><feGaussianBlur stdDeviation="10.132"/><feComposite in2="hardAlpha" operator="out"/><feColorMatrix values="0 0 0 0 0 0 0 0 0 0 0 0 0 0 0 0 0 0 0.01 0"/><feBlend in2="BackgroundImageFix" result="effect1_dropShadow_399_38971"/><feBlend in="SourceGraphic" in2="effect1_dropShadow_399_38971" result="shape"/></filter><filter id="c" x="-2.776" y=".224" width="185.552" height="185.552" filterUnits="userSpaceOnUse" color-interpolation-filters="sRGB"><feFlood flood-opacity="0" result="BackgroundImageFix"/><feColorMatrix in="SourceAlpha" values="0 0 0 0 0 0 0 0 0 0 0 0 0 0 0 0 0 0 127 0" result="hardAlpha"/><feOffset/><feGaussianBlur stdDeviation="9.388"/><feComposite in2="hardAlpha" operator="out"/><feColorMatrix values="0 0 0 0 0 0 0 0 0 0 0 0 0 0 0 0 0 0 0.01 0"/><feBlend in2="BackgroundImageFix" result="effect1_dropShadow_399_38971"/><feBlend in="SourceGraphic" in2="effect1_dropShadow_399_38971" result="shape"/></filter><filter id="d" x="-10.508" y="192.493" width="201.015" height="201.015" filterUnits="userSpaceOnUse" color-interpolation-filters="sRGB"><feFlood flood-opacity="0" result="BackgroundImageFix"/><feColorMatrix in="SourceAlpha" values="0 0 0 0 0 0 0 0 0 0 0 0 0 0 0 0 0 0 127 0" result="hardAlpha"/><feOffset/><feGaussianBlur stdDeviation="13.254"/><feComposite in2="hardAlpha" operator="out"/><feColorMatrix values="0 0 0 0 0 0 0 0 0 0 0 0 0 0 0 0 0 0 0.01 0"/><feBlend in2="BackgroundImageFix" result="effect1_dropShadow_399_38971"/><feBlend in="SourceGraphic" in2="effect1_dropShadow_399_38971" result="shape"/></filter><filter id="e" x="6.736" y="210.121" width="165.891" height="167.51" filterUnits="userSpaceOnUse" color-interpolation-filters="sRGB"><feFlood flood-opacity="0" result="BackgroundImageFix"/><feColorMatrix in="SourceAlpha" values="0 0 0 0 0 0 0 0 0 0 0 0 0 0 0 0 0 0 127 0" result="hardAlpha"/><feOffset/><feGaussianBlur stdDeviation="10.132"/><feComposite in2="hardAlpha" operator="out"/><feColorMatrix values="0 0 0 0 0 0 0 0 0 0 0 0 0 0 0 0 0 0 0.01 0"/><feBlend in2="BackgroundImageFix" result="effect1_dropShadow_399_38971"/><feBlend in="SourceGraphic" in2="effect1_dropShadow_399_38971" result="shape"/></filter></defs></svg>