<svg width="949" height="458" viewBox="0 0 949 458" fill="none" xmlns="http://www.w3.org/2000/svg"><path d="M336 193.471c23.324-3.003 139.659-53.565 194.911-78.471L735 260" stroke="#25A4C4" stroke-width="2" stroke-dasharray="6 6"/><g filter="url(#a)"><ellipse cx="193" cy="265.5" rx="154" ry="153.5" fill="#fff"/></g><circle cx="193" cy="266" r="121" fill="#E9F6FA"/><path d="M161.426 266.726c-1.759 0-3.412-.363-4.961-1.089a11.924 11.924 0 0 1-3.969-3.025c-1.113-1.291-1.912-2.791-2.396-4.501l6.341-1.694c.209.823.58 1.532 1.113 2.129a6.14 6.14 0 0 0 1.887 1.404 5.43 5.43 0 0 0 2.227.484c1 0 1.912-.242 2.734-.726a5.379 5.379 0 0 0 1.985-1.96c.5-.823.75-1.735.75-2.735 0-1-.25-1.912-.75-2.734a5.381 5.381 0 0 0-1.985-1.961 5.29 5.29 0 0 0-2.734-.726c-1.226 0-2.227.21-3.001.63-.774.403-1.355.79-1.742 1.161l-5.566-1.694 1.064-18.537h19.022v6.147h-15.392l2.324-2.178-.726 11.955-1.114-1.356a8.341 8.341 0 0 1 2.977-1.548c1.113-.323 2.154-.484 3.122-.484 2.194 0 4.122.492 5.784 1.476a10.205 10.205 0 0 1 3.92 4.017c.952 1.694 1.428 3.638 1.428 5.832s-.573 4.179-1.718 5.953c-1.146 1.759-2.654 3.163-4.526 4.211-1.871 1.033-3.904 1.549-6.098 1.549Zm31.066 0c-2.581 0-4.84-.54-6.776-1.621a11.518 11.518 0 0 1-4.525-4.526c-1.081-1.936-1.622-4.194-1.622-6.776v-10.454c0-2.582.541-4.84 1.622-6.776a11.518 11.518 0 0 1 4.525-4.526c1.936-1.081 4.195-1.621 6.776-1.621 2.582 0 4.84.54 6.776 1.621a11.52 11.52 0 0 1 4.526 4.526c1.081 1.936 1.621 4.194 1.621 6.776v10.454c0 2.582-.54 4.84-1.621 6.776a11.52 11.52 0 0 1-4.526 4.526c-1.936 1.081-4.194 1.621-6.776 1.621Zm0-6.244c1.162 0 2.211-.274 3.146-.822a6.144 6.144 0 0 0 2.227-2.227c.548-.936.822-1.984.822-3.146v-11.471c0-1.161-.274-2.21-.822-3.146a6.149 6.149 0 0 0-2.227-2.226c-.935-.549-1.984-.823-3.146-.823-1.161 0-2.21.274-3.146.823a6.146 6.146 0 0 0-2.226 2.226c-.549.936-.823 1.985-.823 3.146v11.471c0 1.162.274 2.21.823 3.146a6.141 6.141 0 0 0 2.226 2.227c.936.548 1.985.822 3.146.822Zm27.58-1.016v-8.373h-8.373v-5.082h8.373v-8.325h5.082v8.325h8.325v5.082h-8.325v8.373h-5.082Z" fill="#ED553B"/><path d="M143.303 306v-15.246h2.552v7.072l6.087-7.072h3.134l-6.553 7.475 6.998 7.771h-3.24l-6.426-7.115V306h-2.552Zm11.803 0v-2.139c.417.078.738.071.964-.021.226-.099.395-.282.508-.55.113-.269.212-.625.297-1.07.113-.628.211-1.351.296-2.17a61.11 61.11 0 0 0 .233-2.626c.071-.932.134-1.884.191-2.859h8.417V306h-2.541v-9.042h-3.632a170.086 170.086 0 0 1-.286 3.261c-.056.579-.12 1.13-.19 1.652-.064.515-.131.956-.202 1.323-.162.826-.395 1.479-.698 1.959-.297.48-.713.787-1.25.921-.536.141-1.238.117-2.107-.074Zm23.79-11.435V306h-2.446v-7.464L171.008 306h-2.043v-11.435h2.446v7.274l5.463-7.274h2.022Zm8.171 11.753c-1.157 0-2.174-.251-3.049-.752a5.35 5.35 0 0 1-2.054-2.086c-.487-.889-.73-1.913-.73-3.07 0-1.25.24-2.333.72-3.251.48-.924 1.147-1.641 2.001-2.149.854-.508 1.842-.762 2.964-.762 1.186 0 2.192.279 3.018.836.832.551 1.45 1.331 1.852 2.34.403 1.009.554 2.199.456 3.568h-2.531v-.932c-.007-1.242-.226-2.149-.656-2.721-.431-.571-1.108-.857-2.033-.857-1.045 0-1.821.325-2.329.974-.508.642-.763 1.584-.763 2.827 0 1.157.255 2.054.763 2.689.508.635 1.249.953 2.223.953.628 0 1.168-.138 1.62-.413a2.75 2.75 0 0 0 1.059-1.218l2.52.763c-.438 1.03-1.116 1.831-2.033 2.403a5.562 5.562 0 0 1-3.018.858Zm-3.938-5.326v-1.927h7.866v1.927h-7.866ZM194.586 306v-11.435h2.551v4.511h5.135v-4.511h2.552V306h-2.552v-4.531h-5.135V306h-2.551Zm16.063 0v-9.169h-3.823v-2.266h10.196v2.266H213.2V306h-2.551Zm13.223.318c-1.143 0-2.142-.258-2.996-.773a5.319 5.319 0 0 1-1.991-2.128c-.466-.911-.699-1.956-.699-3.134 0-1.2.24-2.252.72-3.155a5.306 5.306 0 0 1 2.001-2.118c.855-.508 1.843-.762 2.965-.762 1.15 0 2.153.258 3.007.773a5.292 5.292 0 0 1 1.99 2.138c.473.904.71 1.945.71 3.124 0 1.186-.24 2.234-.72 3.144a5.306 5.306 0 0 1-1.991 2.128c-.854.509-1.853.763-2.996.763Zm0-2.393c1.016 0 1.772-.339 2.266-1.017.494-.677.741-1.552.741-2.625 0-1.108-.251-1.991-.752-2.647-.501-.664-1.253-.995-2.255-.995-.685 0-1.249.155-1.694.465-.438.304-.762.731-.974 1.282-.212.543-.318 1.175-.318 1.895 0 1.108.251 1.994.752 2.657.508.657 1.253.985 2.234.985ZM231.89 306v-11.435h5.199c.374 0 .723.022 1.048.064.324.042.603.095.836.159.551.162 1.038.48 1.461.953.424.466.636 1.111.636 1.937 0 .487-.078.89-.233 1.207a2.417 2.417 0 0 1-.985 1.038c-.127.07-.254.127-.381.169.275.043.536.124.783.244.389.19.713.473.974.847.269.374.403.9.403 1.577 0 .77-.187 1.419-.561 1.948-.368.523-.907.886-1.62 1.091-.262.07-.561.123-.9.159-.339.028-.685.042-1.038.042h-5.622Zm2.584-1.969h2.858c.148 0 .311-.014.487-.043.177-.028.335-.067.477-.116a.941.941 0 0 0 .55-.487c.12-.233.18-.477.18-.731 0-.346-.088-.621-.265-.825a1.216 1.216 0 0 0-.614-.424 1.41 1.41 0 0 0-.465-.095 4.874 4.874 0 0 0-.403-.021h-2.805v2.742Zm0-4.743h2.117c.219 0 .431-.011.635-.032.212-.028.388-.074.53-.138a.916.916 0 0 0 .508-.466c.113-.219.169-.462.169-.73a1.53 1.53 0 0 0-.19-.763.906.906 0 0 0-.583-.465 1.867 1.867 0 0 0-.645-.117c-.248-.007-.406-.01-.477-.01h-2.064v2.721Z" fill="#232323"/><path d="M193.044 168a98.056 98.056 0 0 0-90.581 60.524 98.052 98.052 0 0 0 21.253 106.848 98.056 98.056 0 0 0 69.328 28.716 98.043 98.043 0 0 0 0-196.088h0Z" stroke="#ED553B" stroke-width="4" stroke-linecap="round"/><g filter="url(#b)"><ellipse cx="514" cy="147" rx="109" ry="108" fill="#fff"/></g><g filter="url(#c)"><circle cx="514.5" cy="147.5" r="92.5" fill="#E9F6FA"/></g><path d="M490.376 151v-21.164l-4.995 3.071v-5.55l4.995-2.997h5.143V151h-5.143Zm19.946.481a9.374 9.374 0 0 1-3.811-.796 9.637 9.637 0 0 1-3.163-2.275 8.577 8.577 0 0 1-1.906-3.441l4.884-1.295c.259.974.765 1.733 1.517 2.275.765.531 1.591.796 2.479.796.765 0 1.462-.185 2.091-.555a4.116 4.116 0 0 0 1.517-1.499 3.947 3.947 0 0 0 .573-2.09c0-1.147-.394-2.128-1.184-2.942-.777-.826-1.776-1.239-2.997-1.239-.37 0-.727.055-1.073.166a4.458 4.458 0 0 0-.999.426l-2.257-3.959 8.473-7.03.37 1.073h-12.358v-4.736h16.65v4.736l-6.586 6.364-.037-1.406c1.53.234 2.819.771 3.867 1.609a7.916 7.916 0 0 1 2.405 3.071 9.158 9.158 0 0 1 .832 3.867c0 1.677-.425 3.188-1.276 4.532a9.422 9.422 0 0 1-3.386 3.182c-1.406.778-2.947 1.166-4.625 1.166Zm23.378.074c-1.764 0-3.349-.413-4.755-1.24-1.393-.826-2.497-1.973-3.311-3.441-.814-1.48-1.221-3.188-1.221-5.124v-7.733c0-2.097.407-3.904 1.221-5.421.814-1.529 1.961-2.701 3.441-3.515 1.48-.826 3.219-1.239 5.217-1.239 1.295 0 2.528.191 3.7.573 1.171.383 2.244 1.03 3.219 1.943l-3.589 3.589a4.825 4.825 0 0 0-1.536-1.036 4.531 4.531 0 0 0-1.794-.37c-.962 0-1.801.228-2.516.684a4.696 4.696 0 0 0-1.647 1.758 4.797 4.797 0 0 0-.573 2.294v3.959l-.851-.925a7.804 7.804 0 0 1 2.645-1.776 8.1 8.1 0 0 1 3.127-.629c1.677 0 3.151.376 4.421 1.128a7.934 7.934 0 0 1 2.997 3.09c.728 1.307 1.092 2.8 1.092 4.477 0 1.677-.426 3.194-1.277 4.551a9.528 9.528 0 0 1-3.385 3.219c-1.406.789-2.948 1.184-4.625 1.184Zm0-4.81c.764 0 1.461-.185 2.09-.555a4.109 4.109 0 0 0 1.517-1.499 3.939 3.939 0 0 0 .574-2.09c0-.765-.185-1.462-.555-2.091a4.116 4.116 0 0 0-1.499-1.517 3.95 3.95 0 0 0-2.09-.573c-.765 0-1.468.191-2.109.573a4.257 4.257 0 0 0-1.517 1.517 4.048 4.048 0 0 0-.555 2.091c0 .74.185 1.424.555 2.053.37.629.869 1.135 1.498 1.517a3.942 3.942 0 0 0 2.091.574Z" fill="#ED553B"/><path d="M486.604 177v-11.52h1.928v5.344l4.6-5.344h2.368l-4.952 5.648 5.288 5.872h-2.448l-4.856-5.376V177h-1.928Zm13.803.24c-.874 0-1.642-.189-2.304-.568a4.054 4.054 0 0 1-1.552-1.576c-.368-.672-.552-1.445-.552-2.32 0-.944.182-1.763.544-2.456a3.976 3.976 0 0 1 1.512-1.624c.646-.384 1.392-.576 2.24-.576.896 0 1.656.211 2.28.632.63.416 1.096 1.005 1.4 1.768.304.763.419 1.661.344 2.696h-1.912v-.704c-.005-.939-.17-1.624-.496-2.056-.325-.432-.837-.648-1.536-.648-.789 0-1.376.245-1.76.736-.384.485-.576 1.197-.576 2.136 0 .875.192 1.552.576 2.032.384.48.944.72 1.68.72.475 0 .883-.104 1.224-.312.347-.213.614-.52.8-.92l1.904.576a3.85 3.85 0 0 1-1.536 1.816 4.202 4.202 0 0 1-2.28.648Zm-2.976-4.024v-1.456h5.944v1.456h-5.944Zm12.665-5.832c-.442 0-.848-.109-1.216-.328a2.508 2.508 0 0 1-.88-.872 2.357 2.357 0 0 1-.328-1.224h1.504c0 .256.088.475.264.656.182.176.4.264.656.264a.881.881 0 0 0 .648-.264.89.89 0 0 0 .272-.656h1.504c0 .448-.109.856-.328 1.224a2.5 2.5 0 0 1-.88.872 2.332 2.332 0 0 1-1.216.328Zm3.496.976V177h-1.848v-5.64l-4.112 5.64h-1.544v-8.64h1.848v5.496l4.128-5.496h1.528Zm5.999 8.88c-.891 0-1.651-.197-2.28-.592a3.937 3.937 0 0 1-1.448-1.632c-.331-.688-.499-1.467-.504-2.336.005-.885.178-1.669.52-2.352a3.915 3.915 0 0 1 1.472-1.616c.634-.395 1.389-.592 2.264-.592.981 0 1.81.248 2.488.744.682.491 1.128 1.163 1.336 2.016l-1.92.52c-.15-.464-.398-.824-.744-1.08a1.92 1.92 0 0 0-1.184-.392c-.502 0-.915.12-1.24.36-.326.235-.566.56-.72.976a4.036 4.036 0 0 0-.232 1.416c0 .821.184 1.485.552 1.992.368.507.914.76 1.64.76.512 0 .914-.117 1.208-.352.298-.235.522-.573.672-1.016l1.968.44c-.267.88-.734 1.557-1.4 2.032-.667.469-1.483.704-2.448.704Zm9.033 0c-.864 0-1.619-.195-2.264-.584a4 4 0 0 1-1.504-1.608c-.352-.688-.528-1.477-.528-2.368 0-.907.181-1.701.544-2.384a4 4 0 0 1 1.512-1.6c.645-.384 1.392-.576 2.24-.576.869 0 1.626.195 2.272.584a4.003 4.003 0 0 1 1.504 1.616c.357.683.536 1.469.536 2.36 0 .896-.182 1.688-.544 2.376a4.014 4.014 0 0 1-1.504 1.608c-.646.384-1.4.576-2.264.576Zm0-1.808c.768 0 1.338-.256 1.712-.768.373-.512.56-1.173.56-1.984 0-.837-.19-1.504-.568-2-.379-.501-.947-.752-1.704-.752-.518 0-.944.117-1.28.352a2.022 2.022 0 0 0-.736.968c-.16.411-.24.888-.24 1.432 0 .837.189 1.507.568 2.008.384.496.946.744 1.688.744Zm6.058 1.568v-8.64h3.928c.283 0 .547.016.792.048s.456.072.632.12c.416.123.784.363 1.104.72.32.352.48.84.48 1.464 0 .368-.059.672-.176.912a1.81 1.81 0 0 1-1.032.912c.208.032.405.093.592.184.293.144.539.357.736.64.203.283.304.68.304 1.192 0 .581-.141 1.072-.424 1.472-.277.395-.685.669-1.224.824a4.424 4.424 0 0 1-.68.12 9.58 9.58 0 0 1-.784.032h-4.248Zm1.952-1.488h2.16a2.38 2.38 0 0 0 .728-.12.709.709 0 0 0 .416-.368c.091-.176.136-.36.136-.552 0-.261-.067-.469-.2-.624a.918.918 0 0 0-.464-.32 1.045 1.045 0 0 0-.352-.072 3.502 3.502 0 0 0-.304-.016h-2.12v2.072Zm0-3.584h1.6c.165 0 .325-.008.48-.024a1.44 1.44 0 0 0 .4-.104.692.692 0 0 0 .384-.352c.085-.165.128-.349.128-.552 0-.213-.048-.405-.144-.576a.686.686 0 0 0-.44-.352 1.423 1.423 0 0 0-.488-.088 19.712 19.712 0 0 0-.36-.008h-1.56v2.056Z" fill="#232323"/><path d="M514.531 72.582a74.95 74.95 0 1 0 0 149.9 74.95 74.95 0 0 0 0-149.9h0Z" stroke="#ED553B" stroke-width="3.058" stroke-linecap="round"/><g filter="url(#d)"><ellipse cx="801" cy="306" rx="109" ry="108" fill="#fff"/></g><g filter="url(#e)"><circle cx="801.5" cy="306.5" r="92.5" fill="#E9F6FA"/></g><path d="M789.867 291.481a9.374 9.374 0 0 1-3.811-.796 9.64 9.64 0 0 1-3.164-2.275 8.563 8.563 0 0 1-1.905-3.441l4.884-1.295c.259.974.765 1.733 1.517 2.275.765.531 1.591.796 2.479.796.765 0 1.461-.185 2.09-.555a4.109 4.109 0 0 0 1.517-1.499 3.939 3.939 0 0 0 .574-2.09c0-1.147-.395-2.128-1.184-2.942-.777-.826-1.776-1.239-2.997-1.239-.37 0-.728.055-1.073.166a4.458 4.458 0 0 0-.999.426l-2.257-3.959 8.473-7.03.37 1.073h-12.358v-4.736h16.65v4.736l-6.586 6.364-.037-1.406c1.529.234 2.818.771 3.866 1.609a7.906 7.906 0 0 1 2.405 3.071 9.159 9.159 0 0 1 .833 3.867c0 1.677-.426 3.188-1.277 4.532a9.42 9.42 0 0 1-3.385 3.182c-1.406.778-2.948 1.166-4.625 1.166Zm15.422-.481 8.954-21.904h-11.396v-4.736h16.798v4.736L810.728 291h-5.439Z" fill="#ED553B"/><path d="M762.923 322.243c-.868 0-1.645-.135-2.331-.405a4.493 4.493 0 0 1-1.74-1.23c-.474-.551-.831-1.233-1.068-2.048l1.91-.477c.216.69.596 1.251 1.141 1.683.545.432 1.201.645 1.967.64a4.083 4.083 0 0 0 1.514-.316c.48-.2.871-.507 1.173-.923.243-.307.421-.637.534-.987a5.72 5.72 0 0 0 .235-1.101h-4.128v-1.829h4.144c-.086-.658-.275-1.236-.566-1.732a3.085 3.085 0 0 0-1.174-1.166c-.485-.28-1.063-.415-1.732-.404-.798.005-1.473.226-2.023.663-.551.437-.926 1.028-1.125 1.773l-1.951-.275c.291-1.274.89-2.259 1.797-2.955.906-.701 2.048-1.052 3.423-1.052 1.128 0 2.097.256 2.906.769.815.507 1.441 1.217 1.878 2.129.442.912.666 1.969.672 3.172.005 1.134-.208 2.159-.64 3.076a5.21 5.21 0 0 1-1.877 2.185c-.815.54-1.795.81-2.939.81Zm7.062-.243.016-8.741h1.975v4.208l3.197-4.208h2.436l-3.391 4.37 3.683 4.371h-2.582l-3.343-4.209V322h-1.991Zm12.364.243c-.901 0-1.67-.2-2.306-.599a3.988 3.988 0 0 1-1.465-1.651c-.335-.696-.505-1.484-.51-2.364.005-.895.18-1.689.526-2.379a3.967 3.967 0 0 1 1.489-1.635c.642-.399 1.406-.599 2.291-.599.992 0 1.831.251 2.517.753.69.496 1.141 1.176 1.351 2.039l-1.942.526c-.151-.469-.402-.833-.753-1.092a1.935 1.935 0 0 0-1.198-.397c-.507 0-.925.122-1.254.364a2.079 2.079 0 0 0-.729.988 4.1 4.1 0 0 0-.234 1.432c0 .831.186 1.503.558 2.016.372.512.925.769 1.659.769.518 0 .926-.119 1.222-.357.303-.237.529-.58.68-1.027l1.991.445c-.269.89-.742 1.575-1.416 2.056-.675.474-1.5.712-2.477.712Zm5.499-.243v-8.741h7.592V322h-1.951v-6.912h-3.69V322h-1.951Zm13.839.243c-.885 0-1.662-.192-2.331-.575a4.085 4.085 0 0 1-1.57-1.594c-.373-.68-.559-1.463-.559-2.348 0-.955.184-1.783.55-2.484a4.017 4.017 0 0 1 1.53-1.643c.653-.389 1.408-.583 2.266-.583.907 0 1.676.213 2.307.639.637.421 1.109 1.017 1.417 1.789.307.772.423 1.681.348 2.728h-1.935v-.713c-.005-.949-.172-1.643-.502-2.08-.329-.437-.847-.655-1.554-.655-.798 0-1.392.248-1.78.744-.389.491-.583 1.212-.583 2.161 0 .885.194 1.571.583 2.056.388.486.955.729 1.699.729.481 0 .893-.106 1.239-.316.351-.216.62-.526.809-.931l1.926.583a3.896 3.896 0 0 1-1.554 1.837 4.251 4.251 0 0 1-2.306.656Zm-3.011-4.071v-1.473h6.014v1.473h-6.014Zm12.975 4.071c-.852 0-1.567-.203-2.145-.607-.577-.405-1.011-.955-1.303-1.651-.291-.702-.437-1.487-.437-2.356 0-.879.146-1.667.437-2.363.292-.696.718-1.244 1.279-1.643.567-.405 1.265-.607 2.096-.607.826 0 1.541.202 2.145.607.61.399 1.082.947 1.417 1.643.334.691.501 1.478.501 2.363 0 .874-.164 1.66-.493 2.356a4.026 4.026 0 0 1-1.392 1.651c-.599.404-1.301.607-2.105.607Zm-4.217 3.642v-12.626h1.724v6.135h.243v6.491h-1.967Zm3.918-5.39c.507 0 .925-.127 1.254-.381.329-.253.572-.596.729-1.028.162-.437.242-.922.242-1.457a4.07 4.07 0 0 0-.242-1.44 2.214 2.214 0 0 0-.753-1.036c-.34-.259-.772-.389-1.295-.389-.496 0-.901.122-1.214.364-.313.238-.545.572-.696 1.004-.146.426-.219.925-.219 1.497 0 .567.073 1.066.219 1.498.151.431.386.769.704 1.011.324.238.747.357 1.271.357Zm8.267 1.505v-7.009h-2.922v-1.732h7.794v1.732h-2.922V322h-1.95Zm10.109.243c-.874 0-1.638-.197-2.291-.591a4.051 4.051 0 0 1-1.521-1.627c-.357-.696-.535-1.495-.535-2.396 0-.917.184-1.721.551-2.412.367-.69.877-1.23 1.529-1.618.653-.389 1.409-.583 2.267-.583.879 0 1.645.197 2.298.591a4.05 4.05 0 0 1 1.522 1.635c.361.69.542 1.486.542 2.387 0 .907-.183 1.708-.55 2.404a4.06 4.06 0 0 1-1.522 1.627c-.653.389-1.416.583-2.29.583Zm0-1.829c.777 0 1.354-.259 1.732-.777.377-.518.566-1.187.566-2.008 0-.847-.191-1.521-.574-2.023-.383-.507-.958-.761-1.724-.761-.524 0-.955.119-1.295.356a2.05 2.05 0 0 0-.745.98c-.162.415-.243.898-.243 1.448 0 .848.192 1.525.575 2.032.388.502.958.753 1.708.753Zm6.129 1.586v-8.741h3.974a6.3 6.3 0 0 1 .802.048c.248.033.461.073.639.122.421.124.793.367 1.117.728.324.356.486.85.486 1.481 0 .373-.06.68-.178.923a1.855 1.855 0 0 1-.753.793 1.741 1.741 0 0 1-.292.13 1.948 1.948 0 0 1 1.344.833c.205.286.308.688.308 1.206 0 .588-.143 1.085-.429 1.49-.281.399-.694.677-1.239.833a4.383 4.383 0 0 1-.688.122 9.802 9.802 0 0 1-.793.032h-4.298Zm1.975-1.505h2.185c.114 0 .238-.011.373-.033.135-.021.256-.051.364-.089a.719.719 0 0 0 .421-.372 1.2 1.2 0 0 0 .137-.559c0-.264-.067-.474-.202-.631a.928.928 0 0 0-.469-.324 1.095 1.095 0 0 0-.356-.073 4.069 4.069 0 0 0-.308-.016h-2.145v2.097Zm0-3.626h1.619c.167 0 .329-.009.486-.025.161-.021.296-.056.404-.105a.702.702 0 0 0 .389-.356c.086-.167.129-.353.129-.559 0-.215-.048-.41-.145-.582a.694.694 0 0 0-.446-.356 1.428 1.428 0 0 0-.493-.089 15.359 15.359 0 0 0-.365-.009h-1.578v2.081ZM760.642 350v-8.741h3.974a6.3 6.3 0 0 1 .802.048c.248.033.461.073.639.122.421.124.793.367 1.117.728.324.356.486.85.486 1.481 0 .373-.06.68-.178.923a1.855 1.855 0 0 1-.753.793 1.741 1.741 0 0 1-.292.13 1.948 1.948 0 0 1 1.344.833c.205.286.308.688.308 1.206 0 .588-.143 1.085-.429 1.49-.281.399-.694.677-1.239.833a4.383 4.383 0 0 1-.688.122 9.802 9.802 0 0 1-.793.032h-4.298Zm1.975-1.505h2.186c.113 0 .237-.011.372-.033.135-.021.256-.051.364-.089a.719.719 0 0 0 .421-.372 1.2 1.2 0 0 0 .138-.559c0-.264-.068-.474-.203-.631a.928.928 0 0 0-.469-.324 1.095 1.095 0 0 0-.356-.073 4.044 4.044 0 0 0-.308-.016h-2.145v2.097Zm0-3.626h1.619c.167 0 .329-.009.486-.025.161-.021.296-.056.404-.105a.702.702 0 0 0 .389-.356c.086-.167.129-.353.129-.559 0-.215-.048-.41-.145-.582a.694.694 0 0 0-.446-.356 1.424 1.424 0 0 0-.493-.089 15.359 15.359 0 0 0-.365-.009h-1.578v2.081ZM772.925 350l.016-8.741h1.975v4.208l3.197-4.208h2.437l-3.392 4.37 3.683 4.371h-2.582l-3.343-4.209V350h-1.991Zm12.429.243c-.874 0-1.637-.197-2.29-.591a4.06 4.06 0 0 1-1.522-1.627c-.356-.696-.534-1.495-.534-2.396 0-.917.183-1.721.55-2.412.367-.69.877-1.23 1.53-1.618.653-.389 1.408-.583 2.266-.583.88 0 1.646.197 2.299.591a4.05 4.05 0 0 1 1.522 1.635c.361.69.542 1.486.542 2.387 0 .907-.184 1.708-.551 2.404a4.051 4.051 0 0 1-1.521 1.627c-.653.389-1.417.583-2.291.583Zm0-1.829c.777 0 1.355-.259 1.732-.777.378-.518.567-1.187.567-2.008 0-.847-.192-1.521-.575-2.023-.383-.507-.957-.761-1.724-.761-.523 0-.955.119-1.295.356a2.054 2.054 0 0 0-.744.98c-.162.415-.243.898-.243 1.448 0 .848.191 1.525.575 2.032.388.502.957.753 1.707.753Zm6.13 1.586v-8.741h1.603l3.132 6.038 3.14-6.038h1.595V350h-1.862v-4.816L796.607 350h-.769l-2.484-4.816V350h-1.87Zm14.174.243c-.631 0-1.165-.119-1.602-.356a2.526 2.526 0 0 1-.996-.963c-.221-.4-.332-.84-.332-1.32 0-.421.07-.798.211-1.133.14-.34.356-.631.647-.874.292-.248.669-.451 1.133-.607a10.86 10.86 0 0 1 1.231-.308c.474-.091.987-.175 1.537-.251.556-.08 1.136-.167 1.741-.259l-.696.397c.005-.604-.13-1.049-.405-1.335-.275-.286-.739-.429-1.392-.429-.394 0-.775.091-1.142.275-.366.183-.623.499-.768.947l-1.781-.559a3.31 3.31 0 0 1 1.23-1.78c.61-.448 1.43-.672 2.461-.672.777 0 1.459.127 2.047.38a2.543 2.543 0 0 1 1.32 1.247c.156.307.251.623.283.947.032.318.049.666.049 1.044V350h-1.708v-1.894l.283.308c-.394.631-.855 1.095-1.384 1.392-.523.291-1.179.437-1.967.437Zm.389-1.554c.442 0 .82-.078 1.133-.235.313-.156.561-.348.744-.575.189-.226.316-.439.381-.639.102-.248.159-.531.17-.85.016-.324.024-.585.024-.785l.599.178c-.588.092-1.093.173-1.513.243-.421.07-.783.138-1.085.202-.302.06-.569.127-.801.203a2.485 2.485 0 0 0-.575.283 1.259 1.259 0 0 0-.364.372.973.973 0 0 0-.122.494c0 .216.054.407.162.575.108.161.265.291.47.388.21.097.469.146.777.146Zm6.478 1.311v-8.741h1.95v3.448h3.926v-3.448h1.95V350h-1.95v-3.464h-3.926V350h-1.95Zm9.438 1.943v-3.473c.475 0 .812-.162 1.012-.485.199-.324.359-.885.477-1.684.076-.475.138-.976.186-1.505.049-.529.089-1.088.122-1.676.038-.588.07-1.208.097-1.861h6.507v7.211h.883v3.473h-1.846V350H823.8v1.943h-1.837Zm2.614-3.473h3.845v-5.682h-2.857a65.348 65.348 0 0 1-.13 2c-.027.334-.056.655-.089.963-.027.302-.059.583-.097.842a7.422 7.422 0 0 1-.218 1.116 1.776 1.776 0 0 1-.454.761Zm12.267 1.773c-.885 0-1.662-.192-2.331-.575a4.085 4.085 0 0 1-1.57-1.594c-.373-.68-.559-1.463-.559-2.348 0-.955.184-1.783.551-2.484a4.021 4.021 0 0 1 1.529-1.643c.653-.389 1.409-.583 2.267-.583.906 0 1.675.213 2.306.639.637.421 1.109 1.017 1.417 1.789.307.772.423 1.681.348 2.728h-1.935v-.713c-.005-.949-.172-1.643-.501-2.08-.33-.437-.848-.655-1.554-.655-.799 0-1.393.248-1.781.744-.389.491-.583 1.212-.583 2.161 0 .885.194 1.571.583 2.056.388.486.955.729 1.7.729.48 0 .893-.106 1.238-.316.351-.216.621-.526.809-.931l1.927.583a3.908 3.908 0 0 1-1.554 1.837 4.252 4.252 0 0 1-2.307.656Zm-3.011-4.071v-1.473h6.014v1.473h-6.014Z" fill="#232323"/><path d="M801.531 231.582a74.943 74.943 0 0 0-52.998 21.953 74.943 74.943 0 0 0 0 105.996 74.953 74.953 0 0 0 81.681 16.248 74.949 74.949 0 0 0 40.563-40.563 74.966 74.966 0 0 0 0-57.365 74.953 74.953 0 0 0-69.246-46.269h0Z" stroke="#ED553B" stroke-width="3.058" stroke-linecap="round"/><defs><filter id="a" x="0" y="73" width="386" height="385" filterUnits="userSpaceOnUse" color-interpolation-filters="sRGB"><feFlood flood-opacity="0" result="BackgroundImageFix"/><feColorMatrix in="SourceAlpha" values="0 0 0 0 0 0 0 0 0 0 0 0 0 0 0 0 0 0 127 0" result="hardAlpha"/><feOffset/><feGaussianBlur stdDeviation="19.5"/><feComposite in2="hardAlpha" operator="out"/><feColorMatrix values="0 0 0 0 0 0 0 0 0 0 0 0 0 0 0 0 0 0 0.01 0"/><feBlend in2="BackgroundImageFix" result="effect1_dropShadow_399_8982"/><feBlend in="SourceGraphic" in2="effect1_dropShadow_399_8982" result="shape"/></filter><filter id="b" x="366" y="0" width="296" height="294" filterUnits="userSpaceOnUse" color-interpolation-filters="sRGB"><feFlood flood-opacity="0" result="BackgroundImageFix"/><feColorMatrix in="SourceAlpha" values="0 0 0 0 0 0 0 0 0 0 0 0 0 0 0 0 0 0 127 0" result="hardAlpha"/><feOffset/><feGaussianBlur stdDeviation="19.5"/><feComposite in2="hardAlpha" operator="out"/><feColorMatrix values="0 0 0 0 0 0 0 0 0 0 0 0 0 0 0 0 0 0 0.01 0"/><feBlend in2="BackgroundImageFix" result="effect1_dropShadow_399_8982"/><feBlend in="SourceGraphic" in2="effect1_dropShadow_399_8982" result="shape"/></filter><filter id="c" x="392.186" y="25.186" width="244.628" height="244.628" filterUnits="userSpaceOnUse" color-interpolation-filters="sRGB"><feFlood flood-opacity="0" result="BackgroundImageFix"/><feColorMatrix in="SourceAlpha" values="0 0 0 0 0 0 0 0 0 0 0 0 0 0 0 0 0 0 127 0" result="hardAlpha"/><feOffset/><feGaussianBlur stdDeviation="14.907"/><feComposite in2="hardAlpha" operator="out"/><feColorMatrix values="0 0 0 0 0 0 0 0 0 0 0 0 0 0 0 0 0 0 0.01 0"/><feBlend in2="BackgroundImageFix" result="effect1_dropShadow_399_8982"/><feBlend in="SourceGraphic" in2="effect1_dropShadow_399_8982" result="shape"/></filter><filter id="d" x="653" y="159" width="296" height="294" filterUnits="userSpaceOnUse" color-interpolation-filters="sRGB"><feFlood flood-opacity="0" result="BackgroundImageFix"/><feColorMatrix in="SourceAlpha" values="0 0 0 0 0 0 0 0 0 0 0 0 0 0 0 0 0 0 127 0" result="hardAlpha"/><feOffset/><feGaussianBlur stdDeviation="19.5"/><feComposite in2="hardAlpha" operator="out"/><feColorMatrix values="0 0 0 0 0 0 0 0 0 0 0 0 0 0 0 0 0 0 0.01 0"/><feBlend in2="BackgroundImageFix" result="effect1_dropShadow_399_8982"/><feBlend in="SourceGraphic" in2="effect1_dropShadow_399_8982" result="shape"/></filter><filter id="e" x="679.186" y="184.186" width="244.628" height="244.628" filterUnits="userSpaceOnUse" color-interpolation-filters="sRGB"><feFlood flood-opacity="0" result="BackgroundImageFix"/><feColorMatrix in="SourceAlpha" values="0 0 0 0 0 0 0 0 0 0 0 0 0 0 0 0 0 0 127 0" result="hardAlpha"/><feOffset/><feGaussianBlur stdDeviation="14.907"/><feComposite in2="hardAlpha" operator="out"/><feColorMatrix values="0 0 0 0 0 0 0 0 0 0 0 0 0 0 0 0 0 0 0.01 0"/><feBlend in2="BackgroundImageFix" result="effect1_dropShadow_399_8982"/><feBlend in="SourceGraphic" in2="effect1_dropShadow_399_8982" result="shape"/></filter></defs></svg>